
        <svg xmlns="http://www.w3.org/2000/svg" xmlns:xlink="http://www.w3.org/1999/xlink" version="1.1" width="3154.7107256216905" height="3274.3226717931902" viewBox="0 0 3154.7107256216905 3274.3226717931902">
			
			<g transform="scale(13.716133589659522) translate(10, 10)">
				<defs id="SvgjsDefs1598"/><g id="SvgjsG1599" featureKey="symbolFeature-0" transform="matrix(0.8346567268067109,0,0,0.8346567268067109,63.88604889240108,-6.385123641675065)" fill="#fff"><path xmlns="http://www.w3.org/2000/svg" d="M79.324,11.595c-0.622-1.494-1.598-2.501-2.899-2.994c-1.113-0.421-2.269-0.379-3.203-0.208  c-0.375-0.451-0.933-0.743-1.565-0.743c-1.128,0-2.041,0.914-2.041,2.044c0,1.128,0.913,2.042,2.041,2.042  c1.061,0,1.92-0.808,2.023-1.839c0.68-0.105,1.465-0.119,2.196,0.156c0.886,0.335,1.563,1.054,2.015,2.138  c2.45,5.881-2.213,25.742-3.304,30.178c-0.459,0.156-0.794,0.578-0.794,1.089c0,6.705-4.353,12.16-9.703,12.16  c-5.35,0-9.702-5.455-9.702-12.16c0-0.441-0.255-0.812-0.617-1.009c-1.054-4.275-5.79-24.34-3.323-30.258  c0.451-1.081,1.126-1.8,2.009-2.136c0.748-0.285,1.549-0.267,2.236-0.155c0.105,1.03,0.964,1.836,2.022,1.836  c1.128,0,2.042-0.914,2.042-2.042c0-1.13-0.914-2.044-2.042-2.044c-0.635,0-1.194,0.295-1.568,0.749  c-0.94-0.175-2.107-0.223-3.232,0.203c-1.302,0.492-2.277,1.499-2.9,2.993c-2.684,6.438,2.153,26.831,3.25,31.241  c-0.119,0.183-0.206,0.389-0.206,0.624c0,7.402,4.636,13.515,10.593,14.375c-0.877,4.979,1.448,9.848,1.565,10.087  c3.586,7.042,4.017,13.732,1.183,18.356c-2.098,3.422-5.825,5.307-10.496,5.307c-11.216,0-19.231-8.836-19.317-8.931  c-0.134-0.148-1.857-2.04-4.036-4.028c0.573-1.03,0.901-2.213,0.901-3.473c0-3.954-3.218-7.17-7.173-7.17  c-3.954,0-7.171,3.216-7.171,7.17c0,3.955,3.217,7.173,7.171,7.173c1.856,0,3.544-0.715,4.819-1.875  c1.593,1.462,3.011,2.935,3.755,3.757c0.352,0.396,8.769,9.705,21.051,9.705c5.512,0,9.944-2.279,12.481-6.418  c3.268-5.33,2.869-12.85-1.085-20.612c-0.023-0.049-2.226-4.646-1.292-8.99c6.204-0.569,11.112-6.816,11.112-14.433  c0-0.16-0.033-0.312-0.091-0.45C77.029,39.015,82.045,18.125,79.324,11.595z M25.279,81.55c-3.526,0-6.395-2.87-6.395-6.397  c0-3.525,2.869-6.395,6.395-6.395c3.527,0,6.397,2.869,6.397,6.395c0,1.059-0.263,2.057-0.72,2.937  c-0.366-0.323-0.741-0.646-1.121-0.96c0.263-0.606,0.413-1.273,0.413-1.977c0-2.742-2.224-4.967-4.969-4.967  c-2.743,0-4.967,2.225-4.967,4.967c0,2.745,2.224,4.969,4.967,4.969c1.197,0,2.281-0.44,3.139-1.146  c0.37,0.308,0.737,0.63,1.102,0.954C28.389,80.934,26.907,81.55,25.279,81.55z M25.279,71.91c-1.788,0-3.243,1.454-3.243,3.242  c0,1.789,1.455,3.245,3.243,3.245c0.644,0,1.24-0.194,1.746-0.519c0.143,0.105,0.287,0.214,0.431,0.325  c-0.615,0.441-1.364,0.707-2.177,0.707c-2.072,0-3.757-1.687-3.757-3.759c0-2.071,1.685-3.756,3.757-3.756  c2.072,0,3.758,1.685,3.758,3.756c0,0.413-0.083,0.804-0.207,1.177c-0.145-0.111-0.289-0.221-0.434-0.327  c0.075-0.272,0.127-0.554,0.127-0.85C28.523,73.364,27.068,71.91,25.279,71.91z"/></g><g id="SvgjsG1600" featureKey="nameFeature-0" transform="matrix(2.013410388523238,0,0,2.013410388523238,11.940812630834532,75.19705097559823)" fill="#fff"><path d="M27.64 14.600000000000001 c0 -0.04 0.04 -0.04 0.08 -0.04 c0 0.04 -0.08 0.04 -0.08 0.04 z M25.92 14.600000000000001 c0.08 0.04 -0.08 0.16 -0.16 0.12 c-0.08 -0.16 0.16 0 0.16 -0.12 z M25.24 14.64 c0.12 0 0.2 0.12 0.12 0.16 c-0.04 -0.04 -0.12 -0.04 -0.12 -0.16 z M29.28 14.68 c0.08 -0.16 0 0.32 0 0 l0 0 z M29.64 14.68 c0.08 0 0.08 0.08 0.16 0.04 c0 0.08 -0.24 0.08 -0.16 -0.04 z M30.6 15.079999999999998 c0 0.04 0.04 0.04 0.08 0.04 c0 -0.12 -0.04 -0.04 -0.08 -0.04 c-0.04 -0.12 -0.16 -0.16 -0.16 -0.28 c0.16 0.08 0.44 0.04 0.44 0.28 c0.08 0 0.08 -0.08 0.08 -0.16 c0.32 0.12 0.48 0.4 0.52 0.84 c-0.2 0.44 0.28 0.68 0.16 1.08 c-0.2 0.08 -0.04 -0.16 -0.16 -0.16 c-0.16 0.08 0.04 0.24 0 0.4 c-0.48 0.32 -1.04 0.6 -1.6 0.84 c-0.04 0 -0.04 0 -0.04 0.04 c-1.36 0.24 -2.52 0.52 -3.92 0.72 c-0.16 -0.04 0.04 -0.2 0.04 -0.28 c-0.16 0 -0.64 0.08 -0.68 -0.2 c-0.12 0.16 -0.28 -0.04 -0.28 0.24 c0 -0.08 -0.16 -0.08 -0.16 -0.24 c0.16 -0.08 0.28 0.04 0.4 -0.08 c-0.64 -0.04 -1.4 0.28 -2.12 0.36 c0 -0.08 0 -0.12 -0.04 -0.16 c0 0.12 -0.72 0.32 -0.96 0.08 c1.28 -0.4 2.52 -0.6 3.64 -0.84 c0.12 -0.08 0.2 -0.2 0.2 -0.36 c0.08 0.04 0.08 -0.04 0.2 -0.04 c0 0.12 -0.2 0.12 -0.2 0.28 c0.08 0.04 0.24 0 0.48 0 l0 -0.16 c0 -0.08 -0.12 -0.04 -0.2 -0.04 c0 -0.16 0.2 -0.12 0.28 -0.16 c0.08 0.08 -0.04 0.08 0 0.2 c0 0.12 0.2 0.04 0.28 0.04 s0 -0.12 0.08 -0.16 c0.04 -0.08 -0.16 0.04 -0.2 0.04 c-0.12 -0.28 0.44 -0.24 0.68 -0.32 c-0.08 0.2 -0.36 0.16 -0.4 0.32 c0.2 0.04 0.44 -0.2 0.68 -0.08 c0.12 -0.04 0.04 -0.36 0.24 -0.36 c0 0.12 -0.12 0.08 -0.08 0.24 c0.16 0.04 0.12 -0.12 0.12 -0.24 c0.56 0.08 1.08 -0.28 1.6 -0.4 c0 -0.12 -0.2 -0.04 -0.12 -0.16 c-0.08 0 -0.08 0.08 -0.08 0.12 c-0.4 -0.08 -0.76 -0.08 -1.12 -0.08 c-0.12 0 -0.04 -0.24 -0.28 -0.2 c-0.12 0.04 0.04 0.12 0 0.2 c-0.12 0.04 -0.24 0 -0.28 -0.12 c-0.12 -0.04 -0.16 0.04 -0.16 0.12 c-0.08 0 -0.08 -0.08 -0.12 -0.08 c0.04 0.08 -0.12 0.08 -0.32 0.08 c-0.04 0 -0.08 -0.08 -0.04 -0.2 c-0.08 0.04 -0.08 0.08 -0.08 0.12 c-0.04 0 -0.08 -0.04 -0.08 -0.12 c-0.12 0.04 -0.08 0.16 -0.16 0.2 c-0.16 -0.24 -0.32 -0.08 -0.56 -0.08 c0 0.08 0.12 0.04 0.08 0.08 c-0.16 0 -0.12 -0.2 -0.32 -0.12 c-0.08 0.12 0.08 0.04 0.12 0.12 c0 0.12 -0.28 0.04 -0.44 0.08 c-0.04 -0.12 0.12 -0.08 0.16 -0.12 c-0.24 -0.08 -0.72 -0.16 -0.84 0.12 c-0.16 -0.08 -0.24 0.04 -0.36 0.08 c-0.12 -0.04 -0.16 -0.16 -0.28 -0.2 c-0.92 0 -2.08 0.4 -2.88 0.16 c-0.04 0.08 -0.12 0.16 -0.2 0.24 c-0.56 -0.08 -1.08 0.2 -1.6 0.08 c0.04 -0.12 0 -0.16 -0.04 -0.24 l-0.24 0 s-0.04 0.2 -0.04 0.28 c0.12 0 0.12 -0.08 0.12 -0.16 c0.12 0 0.04 0.16 0.2 0.12 c-0.4 0.16 -0.84 0.24 -1.28 0.2 c0 -0.16 0 -0.16 0.16 -0.12 c0 -0.08 -0.04 -0.08 -0.04 -0.16 c-0.12 0 -0.08 0.12 -0.24 0.08 c0 -0.16 -0.08 -0.28 0.04 -0.44 c0.08 0 -0.04 0.24 0.08 0.2 c0.2 0.08 0 -0.28 0.16 -0.2 c-0.04 0.12 -0.08 0.2 0.16 0.16 c-0.12 -0.08 0.36 -0.36 0.32 -0.08 c0.12 -0.08 0.16 -0.28 0.36 -0.2 c0.08 0.08 -0.04 0.08 0.04 0.12 c0.28 0.04 0.28 0 0.48 -0.04 c0.04 -0.12 -0.16 0.04 -0.08 -0.16 c0.04 0 0.08 0.08 0.08 0 c0.08 0.04 0.04 0.12 0.08 0.2 c0.12 -0.04 0.2 -0.08 0.28 0 c0.08 -0.08 0.24 -0.16 0.16 -0.44 c0.28 0.08 0.24 0.16 0.36 0.12 c0 0.12 -0.04 0.2 0 0.28 c0.12 -0.08 0.32 -0.08 0.2 -0.28 c0.16 0.04 0.12 -0.08 0.24 -0.04 c0 0.16 -0.04 0.16 0.04 0.28 c0.12 0.04 0.08 -0.12 0.16 -0.12 c0.04 -0.12 -0.12 -0.08 -0.08 -0.24 c0.08 0.04 0.12 -0.04 0.08 -0.08 c0.08 0.12 0.12 0.2 0.16 0.32 c0.24 0.08 0.16 -0.28 0.24 -0.32 c0.04 0.04 0.24 0.12 0.08 0.2 c0 0.08 0.12 0.08 0.24 0.08 c0 -0.08 0 -0.16 -0.08 -0.2 c-0.04 -0.08 0.2 0.04 0.16 -0.04 c0.12 0.04 0 0.16 0 0.24 l0.08 0 c0.12 -0.08 0.04 -0.12 0.04 -0.24 c0.04 0 0.12 0 0.12 -0.04 c0.12 0 0.08 0.12 0.08 0.24 c0.16 -0.16 0.32 -0.36 0.64 -0.24 c0 0.16 0.16 0 0 0 c0 -0.08 0 -0.12 0.12 -0.12 c-0.04 0.16 0.04 0.24 0.12 0.28 c0.16 -0.08 -0.08 -0.16 0.04 -0.2 c0.08 0.08 0.56 0.16 0.56 -0.12 c0.08 0.04 0.08 0.12 0.12 0.2 c0.2 0 0.52 -0.2 0.56 0 c0.08 0 0.04 -0.12 0.04 -0.2 s-0.12 -0.04 -0.16 -0.04 c0.04 -0.16 0 -0.24 -0.04 -0.28 c0.08 -0.04 0.12 0.08 0.08 0.12 c0.12 0.08 0.08 -0.08 0.08 -0.12 c0.08 0.04 0.08 0.2 0.28 0.12 c0.04 0.2 -0.16 0.12 -0.2 0.24 c0 0.16 0.36 0.12 0.36 -0.04 c0.24 0.2 0.36 0 0.68 0 c0 -0.08 0.08 -0.24 0.24 -0.28 c0 0.12 -0.04 0.16 -0.08 0.24 c0.04 0.24 0.24 0.04 0.36 0.16 c0 -0.04 0 -0.12 -0.04 -0.12 c0.24 -0.12 0.52 0 0.8 0 c0.2 0 0.32 -0.12 0.48 -0.12 c0.28 0 0.4 0.08 0.6 0.04 c0.6 -0.12 1.2 0.32 1.64 0.04 c0.08 0.16 0.2 0.12 0.28 0.16 c0.2 -0.04 0.04 -0.36 0.24 -0.2 c-0.04 -0.16 -0.28 -0.08 -0.12 -0.24 c0 -0.08 -0.08 -0.08 -0.16 -0.08 c-0.04 0.04 0 0.32 -0.16 0.32 c0 -0.08 0 -0.16 -0.04 -0.2 c0.2 -0.04 0.04 -0.24 0.08 -0.36 c0.08 -0.04 0.32 0.2 0.32 -0.04 c0 -0.08 -0.08 0.08 -0.2 0 c0 -0.08 -0.04 -0.08 -0.04 -0.16 c0.24 0.04 0.28 0.04 0.44 0.08 c-0.04 0.08 -0.12 0.08 -0.16 0.2 c0.04 0.16 0.24 0.08 0.4 0.08 z M30.8 15.16 c0.08 0.12 0.12 -0.16 0 0 l0 0 z M30.4 15.32 c0.04 -0.12 -0.12 -0.04 -0.16 -0.08 c0 0.08 0.08 0.08 0.16 0.08 z M30.8 15.760000000000002 c0.12 0.04 0.12 -0.2 0 -0.16 l0 0.16 z M27.12 15.760000000000002 l-0.24 0 c-0.04 0.16 0.24 0.16 0.24 0 z M25.2 15.879999999999999 c0.04 0.16 0.04 -0.16 0 0 l0 0 z M25.44 15.879999999999999 c-0.08 0.16 0.28 0.04 0.28 -0.08 c-0.12 0 -0.24 0 -0.28 0.08 z M26.44 15.879999999999999 c0.04 0 0 -0.04 0 0 l0 0 z M23.72 16 l0.08 0 c0.08 -0.12 -0.16 -0.12 -0.12 -0.04 c0 0 0.04 0 0.04 0.04 z M21.48 16.32 c0 -0.08 -0.04 -0.08 -0.12 -0.12 c0 0.04 0 0.12 0.12 0.12 z M19.04 16.36 c0.08 0 0.12 0 0.2 0.04 l0 -0.16 l-0.16 0 c0 0.04 -0.04 0.08 -0.04 0.12 z M20.8 16.32 c0.04 0.16 0.12 -0.16 0 0 l0 0 z M21.72 16.36 l0.08 0 l0 -0.12 l-0.08 0 l0 0.12 z M21.24 16.4 c0.04 0.04 -0.04 0 0 0 l0 0 z M19.92 16.44 c0.04 0.04 -0.04 0 0 0 l0 0 z M29.44 16.84 c0.32 0.08 0.6 -0.16 0.92 -0.2 c0 -0.12 0 -0.16 -0.08 -0.2 c-0.28 0.16 -0.6 0.24 -0.84 0.4 z M19.04 16.68 c0.04 0.04 -0.04 0 0 0 l0 0 z M18.8 16.72 c-0.04 0 -0.08 0 -0.08 0.04 c0.04 -0.04 0.08 0 0.08 -0.04 z M29.32 16.88 c-0.08 -0.08 -0.08 0.16 0 0.16 l0 -0.16 c0.08 -0.04 0 -0.04 0 0 z M27.72 17.56 c0.04 0.04 -0.04 0 0 0 l0 0 z M25.32 18.12 c0.16 -0.08 0.16 0 0.2 0.04 c0.04 -0.24 0.32 0 0.4 -0.24 c-0.28 0.12 -0.44 -0.04 -0.6 0.2 z M26.6 18.2 l0.08 0 l0 -0.04 l-0.08 0 l0 0.04 z M25.8 18.24 c0.12 0.2 0.08 -0.12 0 0 l0 0 z M23.32 14.8 c0.04 0.16 -0.16 0 -0.2 0.08 c-0.12 -0.08 0.12 -0.08 0.2 -0.08 z M23.56 14.8 c0.04 -0.16 0.04 0.2 0 0 l0 0 z M26.36 14.8 c0.08 0.12 0.16 -0.04 0.28 0.04 c0.08 0.24 -0.2 0.08 -0.24 0.2 c-0.12 -0.08 -0.08 -0.12 -0.04 -0.24 z M26.88 14.8 c0.04 0 0.08 0.08 0.08 0.2 c-0.12 -0.04 -0.12 -0.04 -0.28 0 c-0.04 -0.2 0.24 -0.04 0.2 -0.2 z M29.68 15.239999999999998 l-0.04 0 c-0.04 0.04 0 0.04 0.04 0.04 c-0.04 0.08 0.04 0.12 0.04 0.2 c-0.12 -0.08 -0.6 0.12 -0.64 -0.16 c0.08 0 0.16 0 0.16 -0.04 c0.08 0 0.08 0.08 0.2 0.04 c0.12 -0.08 -0.12 -0.08 -0.04 -0.28 c-0.56 -0.04 -1.12 -0.08 -1.68 -0.16 c-0.12 0.2 0.08 0.12 0.04 0.36 c-0.12 -0.04 -0.12 -0.2 -0.2 -0.32 c-0.24 0 -0.36 0.2 -0.56 -0.04 c0.8 -0.08 1.64 -0.08 2.76 0.04 c0.04 0.2 -0.16 0.12 -0.08 0.32 z M25.48 14.879999999999999 c-0.28 0.16 -0.68 0.24 -0.88 0.04 c0.32 0 0.6 0 0.88 -0.04 z M22.84 14.920000000000002 c0 -0.04 0.04 -0.04 0.08 -0.04 c0 0.04 -0.04 0.04 -0.08 0.04 z M25.64 14.920000000000002 c0 -0.12 0.12 0.12 0.12 -0.04 c0.16 0.08 -0.12 0.16 -0.12 0.04 z M26.08 14.920000000000002 c0.16 -0.12 0.24 0.16 0 0 l0 0 z M22 15 l0 0 c0.04 0 0 -0.04 0 0 z M22.12 15 c0 -0.08 0 -0.04 0.04 -0.08 c0 0.08 -0.04 0.04 -0.04 0.08 z M24.56 15 c-0.16 0.28 -0.68 -0.12 -0.76 0.28 c-0.04 0 -0.04 -0.08 -0.04 -0.16 c-0.24 0.04 -0.24 0.04 -0.52 0.04 c0.2 -0.24 0.96 -0.12 1.32 -0.16 z M25.64 14.920000000000002 c0 0.08 -0.08 0.04 0 0 l0 0 z M26.76 15.04 c0.12 0 0 0.28 0.24 0.24 c0 0.24 -0.2 0.12 -0.32 0.08 c0.08 -0.12 0.08 -0.08 0.08 -0.32 z M20.88 15.120000000000001 l0 0 c0.04 0.04 0 0 0 0 z M22.88 15.079999999999998 c0.08 0.04 0 0.08 0 0.16 c-0.08 -0.04 0 -0.12 0 -0.16 z M23 15.120000000000001 c0 -0.12 0.12 0 0.08 0.12 l-0.08 0 c0 -0.04 0.04 -0.12 0 -0.12 z M27.24 15.120000000000001 l0 0 c0.04 0.04 -0.04 0 0 0 z M22.64 15.16 c0.08 -0.16 0.12 0.16 0 0 l0 0 z M26.52 15.120000000000001 c-0.04 0.08 -0.08 0.12 -0.12 0.12 c0 -0.08 0.04 -0.12 0.12 -0.12 z M27.92 15.16 c0 0 0.08 -0.08 0.16 -0.04 c0.08 0.08 -0.2 0.2 -0.16 0.04 z M28.8 15.280000000000001 c0 0.08 -0.04 0.12 -0.04 0.16 c-0.16 -0.08 -0.36 -0.08 -0.52 -0.08 c0.08 -0.08 0 -0.08 0 -0.24 c0.12 0 0.16 0.12 0.28 0.16 c0.08 0 0 -0.12 0.08 -0.16 c0.2 -0.08 0 0.24 0.2 0.16 z M28.8 15.280000000000001 c0 -0.04 -0.08 -0.04 -0.04 -0.12 c0.12 -0.12 0.28 0.08 0.24 0.28 c-0.16 0.04 -0.08 -0.16 -0.2 -0.16 z M29.24 15.280000000000001 l-0.16 0 c0 -0.08 0.04 -0.12 0.04 -0.16 l0.12 0 l0 0.16 z M22.04 15.16 l0.08 0.08 l0 0.04 l-0.12 0 c0 -0.04 0.04 -0.04 0.04 -0.12 z M22.4 15.239999999999998 c0 -0.08 0.24 -0.12 0.2 0.04 c-0.08 0 -0.12 -0.08 -0.2 -0.04 z M25.68 15.239999999999998 l0 0 c0.04 0 -0.04 -0.04 0 0 z M26 15.16 c0.12 0.04 0.2 0.12 0.24 0.12 c0.04 0.16 -0.08 0.08 -0.08 0 c-0.04 0 -0.04 0.08 -0.04 0.16 c-0.08 0.12 -0.04 -0.2 -0.12 -0.28 z M29.68 15.239999999999998 c0.04 0 0.08 0.04 0.08 0.04 l-0.08 0 l0 -0.04 z M21.8 15.280000000000001 c0.08 -0.16 0.08 0.2 0 0 l0 0 z M26.52 15.280000000000001 l0.08 0 c0 0.04 -0.04 0.04 -0.04 0.08 c-0.04 0 -0.04 -0.04 -0.12 -0.04 c0.04 -0.04 0.08 -0.04 0.08 -0.04 z M27.8 15.280000000000001 c0.08 -0.16 0.08 0.2 0 0 l0 0 z M28.16 15.280000000000001 c0.04 -0.16 0.04 0.2 0 0 l0 0 z M19.04 15.32 l0 0 c0.04 0.04 -0.04 0 0 0 z M21.36 15.32 l0 0 c0.04 0.04 0 0 0 0 z M27.44 15.280000000000001 c0.12 0 0.16 0 0.24 0.04 c0 0.08 -0.28 0.12 -0.24 -0.04 z M20.76 15.36 c0 0.16 -0.16 0.12 -0.08 0.32 c-0.16 -0.16 -0.36 -0.12 -0.52 -0.16 c0.04 -0.08 0.04 -0.16 0.16 -0.16 c0.04 0.24 0.28 -0.08 0.44 0 z M20.84 15.32 l0.08 0 l0 0.12 l-0.08 0 l0 -0.12 z M21.24 15.36 l0 0 c0.04 0.04 -0.04 0 0 0 z M22.56 15.32 c0.12 -0.04 0.12 0.28 0 0.24 l0 -0.24 z M23.48 15.36 l0 0 c0.04 0.04 -0.04 0 0 0 z M18.76 15.440000000000001 l0 0 l0 0 z M21.48 15.36 c0.12 0.04 0.08 0.16 0.04 0.2 c-0.08 0 -0.04 -0.12 -0.04 -0.2 z M22.76 15.36 c0.12 -0.04 0.08 0.12 0.08 0.2 c-0.08 0 -0.12 -0.08 -0.08 -0.2 z M23.92 15.559999999999999 c-0.2 -0.04 -0.28 0.12 -0.36 0 c-0.04 -0.12 0.08 -0.08 0.08 -0.2 c0.04 0.12 0.16 0.16 0.28 0.2 z M24.32 15.440000000000001 c-0.08 0.04 -0.08 0.12 -0.2 0.12 c-0.04 -0.12 0.08 -0.12 0.2 -0.12 z M29.96 15.48 c0.08 -0.2 0.08 0.2 0 0 l0 0 z M18.48 15.52 l0 0 c0.04 0.04 0 0 0 0 z M19.88 15.48 c0.08 -0.04 0.04 0.2 -0.08 0.12 l0 -0.08 c0.04 0 0.04 0 0.08 -0.04 z M19.52 15.559999999999999 l0 0.16 c-0.16 -0.16 -0.16 0.04 -0.36 -0.04 c-0.08 -0.04 0.2 -0.12 0.28 -0.16 c0 0.04 0.04 0.04 0.08 0.04 z M19.52 15.559999999999999 l0 0 c0.08 -0.04 0 -0.04 0 0 z M19.68 15.559999999999999 c0.04 -0.2 0.04 0.2 0 0 l0 0 z M22.16 15.52 c0.2 0.04 -0.04 0.24 0 0 l0 0 z M18.92 15.68 c0.08 -0.2 0.08 0.12 0 0 l0 0 z M21 15.600000000000001 c0.04 0.04 0 0.12 0.08 0.12 c-0.04 0.08 -0.16 0 -0.08 -0.12 z M18.56 15.719999999999999 c-0.08 0 -0.04 -0.08 0 0 l0 0 z M18.76 15.719999999999999 c0 -0.04 0.04 -0.04 0.08 -0.04 c0 0.04 -0.08 0.04 -0.08 0.04 z M18.32 15.719999999999999 c0.16 0.08 -0.12 0.12 0 0 l0 0 z M18.56 15.719999999999999 c0.04 0 0.08 0 0.08 0.04 l-0.08 0 l0 -0.04 z M21.2 15.760000000000002 c0.12 -0.2 0.04 0.12 0 0 l0 0 z M20.88 15.760000000000002 c0.08 -0.16 0.08 0.2 0 0 l0 0 z M17.88 15.8 l0 0 c0 0.04 -0.04 0 0 0 z M17.72 15.879999999999999 c-0.08 0 -0.04 -0.08 0 0 l0 0 z M17.36 15.879999999999999 c0.08 0.12 -0.04 0.08 -0.12 0.08 c0 -0.08 0.08 -0.12 0.12 -0.08 z M17.72 15.879999999999999 c0.16 -0.08 0 0.12 0 0 l0 0 z M17.04 15.96 l0 0 c0.04 -0.04 0 -0.04 0 0 z M17.04 15.96 c-0.04 0.16 -0.2 -0.04 0 0 l0 0 z M17.8 15.96 l0.12 0 l0 0.16 l-0.12 0 l0 -0.16 z M14.92 16.04 c0.04 -0.16 0.04 0.2 0 0 l0 0 z M20 16.04 c0.16 -0.08 -0.12 0.16 0 0 l0 0 z M16.2 16.04 l0.08 0 l0 0.16 l-0.12 0 l0 -0.08 c0.04 0 0.04 -0.04 0.04 -0.08 z M18.72 16.12 l0 0 c0.04 0 0 -0.04 0 0 z M19.56 16.12 c0 -0.08 0.08 -0.04 0.12 -0.08 c-0.04 0.08 -0.08 0.04 -0.12 0.08 z M15.8 16.12 c0.04 0 0.04 0.08 0.08 0.08 c0 0.08 -0.12 0 -0.08 -0.08 z M16 16.12 c0.12 0 0.12 0.08 0.04 0.12 l-0.08 0 l0 -0.08 c0.04 0 0.04 -0.04 0.04 -0.04 z M19.44 16.2 l0 0 c0 0.04 -0.04 0 0 0 z M26.92 16.16 c0.16 0.08 -0.16 0.12 0 0 l0 0 z M15.36 16.24 l0 0 c-0.04 0.24 0.04 -0.2 0 0 z M13.72 16.24 c0.2 0 -0.08 0.24 0 0 l0 0 z M14.92 16.24 c0.2 0.2 -0.2 0.16 0 0 l0 0 z M15.52 16.24 l0.08 0 l-0.08 0 z M16.84 16.24 c0.12 -0.12 0.08 0.16 0 0 l0 0 z M26.4 16.24 l0 0 c0.04 0.04 -0.04 0 0 0 z M16.4 16.32 c-0.16 0 -0.12 0.24 -0.36 0.24 c0.04 -0.08 0.08 -0.16 0.08 -0.24 c0.08 0.12 0.16 -0.12 0.28 0 z M17.48 16.32 c0.04 -0.04 0.08 0 0.08 -0.08 c-0.04 0.04 -0.08 0 -0.08 0.08 z M16.72 16.4 l0 0 c0.04 0.04 0 0 0 0 z M7.24 37.96 l0 -0.04 c-0.04 0 0 0.04 0 0.04 c-0.04 0.68 -0.36 1.12 -0.44 1.56 c-0.12 0.72 -0.28 1.2 -0.44 1.72 c-0.28 0.92 -0.64 1.92 -0.84 2.8 c-0.12 0.4 -0.4 0.8 -0.56 1.2 c-0.16 0.6 -0.48 1.64 -0.56 2 c-0.08 0.6 -0.6 1.68 -0.68 2.24 c-0.08 0.04 -0.16 0 -0.16 0.08 c-0.16 0 -0.12 -0.12 -0.16 -0.2 c-0.2 0.24 -0.4 -0.16 -0.48 0 c-0.28 -0.08 -0.24 -0.44 -0.32 -0.64 c-0.16 0 -0.08 0.2 -0.16 0.24 c-0.2 -0.2 -0.08 -0.72 -0.28 -0.92 c0.4 -0.32 0.4 -1.08 0.76 -1.48 c0.32 -1.48 0.92 -2.48 1.12 -4.08 c0.96 -3.28 1.44 -6.92 1.52 -10.84 c0 -0.84 -0.04 -1.36 0.04 -1.96 c-0.24 -0.48 -0.12 -1.32 -0.32 -1.84 l0 -0.16 c-0.08 -0.04 -0.08 0.16 0 0.16 c-0.08 0.4 0.16 0.68 0.04 1.04 c-0.28 -1.16 -0.48 -2.44 -0.96 -3.52 c-0.64 -1.52 -1.72 -2.8 -3.6 -3.16 c-0.64 0.12 -1.08 -0.24 -1.64 -0.12 c-0.04 -0.08 -0.16 -0.08 -0.2 -0.12 c-0.8 0.2 -1.28 0.56 -2.08 0.84 c-0.12 0 -0.04 0.16 -0.12 0.2 s-0.04 -0.08 -0.16 -0.08 c-0.48 0.52 -1.6 0.88 -2.28 0.36 c-0.04 -0.28 0 -0.68 -0.2 -0.8 c-0.04 -0.36 0.04 -0.6 0.12 -0.92 c0.92 -0.56 2.2 -0.88 3.08 -1.56 c0.36 0.12 1.24 -0.4 1.36 0.16 c0.4 -0.08 0.68 -0.24 1 -0.36 c0 0.08 0 0.12 -0.04 0.16 c0.08 -0.04 0.52 -0.2 0.6 -0.28 c0.08 0 0.16 0.04 0.12 0.12 c0.12 -0.04 0.16 -0.16 0.2 -0.24 c0.24 0.08 0.12 0 0.36 -0.08 c0.04 0.12 -0.08 0.12 -0.04 0.2 c0.16 -0.08 0.44 -0.04 0.6 -0.2 c1 -0.16 1.64 -0.64 2.48 -0.6 c0.04 -0.04 0.08 -0.12 0.08 -0.24 c0.4 0.2 0.8 -0.24 1.12 -0.08 c-0.28 0.24 -0.48 0.12 -0.68 0.36 c0 0.2 0.32 -0.08 0.28 0.2 c-0.2 -0.04 -0.4 -0.04 -0.4 0.2 c-0.04 0 -0.04 -0.08 -0.08 -0.12 c-0.44 0.16 -0.84 0.16 -1.04 0.48 c-0.08 -0.04 -0.2 -0.04 -0.24 -0.12 c-0.04 0.04 -0.12 0.04 -0.08 0.2 c0.2 0.16 0.48 -0.04 0.64 -0.12 c0.08 0 0.04 0.08 0 0.12 l0.12 0 c0.16 -0.04 -0.04 -0.08 0 -0.16 c0.4 0.16 0.72 -0.08 1.12 -0.16 c0 -0.12 -0.2 0 -0.12 -0.2 c0.2 0.04 0.32 0.24 0.32 0.36 c0.2 0 0.24 -0.12 0.36 -0.12 c0 -0.16 -0.2 0.12 -0.24 -0.04 c0 -0.16 0.16 0 0.2 -0.2 c-0.08 -0.08 -0.2 0.04 -0.36 0 c0.04 -0.12 -0.12 -0.12 -0.08 -0.24 c0.04 -0.08 0.08 -0.24 0.24 -0.24 c0 0.04 -0.04 0.04 -0.04 0.08 c0.2 0.04 0 -0.16 0.12 -0.2 c0.16 0 0.16 0.08 0.04 0.16 c0.12 0.04 0.16 -0.04 0.12 -0.16 c0.08 0.12 0.16 0.16 0.32 0.12 c-0.12 0.24 -0.44 0.08 -0.68 0.36 c0.08 0.2 0.2 -0.04 0.36 0 c0 0.12 0.16 0.12 0.08 0.32 c0.12 0 0.12 -0.08 0.2 -0.08 c-0.12 -0.04 -0.04 -0.08 -0.08 -0.12 c0.16 -0.04 0.4 -0.12 0.64 -0.12 c0.04 0 0.12 -0.2 0.04 -0.24 c0.04 -0.12 0.2 -0.08 0.32 -0.12 c0.04 0.08 -0.04 0.08 -0.04 0.16 c0.36 -0.08 0.76 -0.04 1.12 -0.28 c0.12 0 0.08 0.2 0.16 0.2 c0.04 -0.12 0.16 -0.16 0.16 -0.28 c0.04 0.04 0.12 0.04 0.24 0.04 l0 0.16 c0.04 -0.16 0.04 -0.16 0.2 -0.08 c0.04 -0.12 -0.16 -0.08 -0.12 -0.28 c0.12 -0.04 0.16 0.12 0.16 -0.04 c0.12 0 0.04 0.24 0.12 0.28 c0.12 -0.12 0.08 -0.24 0.28 -0.2 c0.04 -0.12 -0.08 -0.12 -0.08 -0.24 c0.16 0.04 0.12 0.24 0.16 0.4 c0 -0.24 0.44 -0.44 0.52 -0.28 c0.2 -0.32 0.64 -0.04 0.8 -0.36 c0.12 0 0.08 0.16 0.24 0.16 c0.08 -0.04 0.04 -0.12 0.04 -0.2 c0.24 0 0.72 -0.04 1 -0.2 c0.08 0 0.08 0.2 0.2 0.2 c0 -0.04 -0.12 -0.2 0.04 -0.32 c0.04 -0.04 0.32 0.08 0.2 -0.08 c0.12 -0.2 0 0.24 0.24 0.16 c0 0.04 -0.04 0.04 -0.12 0.04 c-0.04 0.12 0.08 0.08 0.08 0.2 c0.08 -0.2 0.2 -0.24 0.12 -0.48 c0.2 -0.08 0.32 -0.44 0.28 -0.64 c0 -0.08 0 -0.08 0.08 -0.04 c0.04 -0.04 0.12 -0.24 0.04 -0.28 c0.44 0.08 1.28 -0.2 1.8 0.2 c0.08 0.12 0.04 0.36 0.12 0.48 c0.28 -0.08 0.68 0.04 0.76 -0.16 c0.24 0.12 0.56 -0.24 0.6 0.16 c0.24 0 0.44 -0.2 0.64 -0.04 c0.08 -0.12 -0.12 -0.52 -0.08 -0.56 c0.2 -0.04 0.2 0.36 0.36 0.12 c0 0 0.04 0.04 0.08 0.04 c0.12 0 0 -0.28 0.12 -0.32 c0.08 0.08 0.24 0.08 0.2 0.28 c0.08 0 0.16 0 0.24 -0.08 c-0.04 -0.16 -0.16 0.04 -0.2 0 c-0.04 -0.2 0.24 -0.08 0.24 -0.24 c0.16 0.04 0.04 0.08 0.04 0.24 c0.2 0.08 0 -0.28 0.2 -0.2 c-0.08 0.24 0.2 0.32 0.48 0.32 c0.04 0.08 -0.08 0.08 -0.04 0.2 c-0.92 0.16 -2 0.48 -2.8 0.4 c-0.12 0 0 0.24 -0.12 0.16 c0 -0.12 0 -0.2 -0.04 -0.24 c-0.2 0.04 -0.04 0.16 0 0.28 c-0.32 0 -0.56 0.08 -1 0.16 c0.04 0.36 -0.16 0.52 -0.32 0.68 c-0.36 0.96 -0.68 1.88 -1.12 2.68 c-0.16 0.72 -0.56 1.32 -0.6 1.92 c-0.44 0.56 -0.44 1.56 -0.92 2.04 c-0.04 0.08 0.04 0.08 0.04 0.2 c-0.28 1.08 -0.72 2.04 -1.08 2.88 l0 0.2 c-0.2 0.52 -0.16 1.28 -0.56 1.84 c0 0.04 0.04 0.04 0.08 0.04 c-0.16 0.16 -0.2 0.32 -0.16 0.56 c-0.24 0.6 -0.48 1.36 -0.64 2.16 c-0.04 0 -0.08 0 -0.12 -0.04 c-0.16 0.68 -0.4 1.56 -0.64 2.16 c0.08 0.28 -0.04 0.56 -0.24 0.68 c0.12 0.28 -0.16 0.28 -0.04 0.64 c-0.28 0.08 -0.08 0.64 -0.44 0.72 c0.12 0.32 -0.04 0.72 -0.24 0.92 z M17.08 16.68 c0 -0.04 0.08 -0.08 0.08 -0.12 c-0.08 -0.04 -0.2 0.12 -0.08 0.12 z M17.56 16.88 c0.2 -0.04 0.28 0.04 0.36 -0.16 c-0.12 0 -0.32 0 -0.36 0.16 z M15.84 17.12 c-0.16 -0.12 -0.12 0.16 0 0 l0 0 z M14.44 17.28 c0.12 0.2 0.08 -0.12 0 0 l0 0 z M11.96 17.76 c-0.04 0.08 -0.08 0.04 -0.12 0 c-0.08 0.2 0.28 0.08 0.12 0 z M11.32 17.96 c0.04 0.2 0.04 -0.2 0 0 l0 0 z M11.16 18 c0.08 0.16 0.12 -0.16 0 0 l0 0 z M10.6 18.04 c0 0.12 0.08 0.12 0.2 0.12 l0 -0.16 c-0.12 0 -0.12 0.08 -0.2 0.04 z M5.52 19.68 c-0.2 0 -0.36 0.04 -0.44 0.12 c0.2 0 0.32 -0.04 0.44 -0.12 c0.12 0.04 0.2 -0.12 0.28 0 c-1.84 0.76 -4 1.08 -5.72 1.88 c2.84 0.52 5.08 2.04 5.4 4.56 c0.2 -0.04 0.24 0.4 0.32 0.56 c-0.04 0.04 -0.16 0.04 -0.16 0.12 c0.16 0 0.12 0.24 0.16 0.32 c0 -0.08 0.04 -0.12 0.12 -0.12 c0.24 0.72 0.6 1.64 0.44 2.32 c-0.04 -0.04 -0.08 0.04 0 0 l0 0.16 c0.28 0.28 0.08 0.92 0.24 1.4 c-0.28 0.32 0.04 0.88 -0.32 1.24 c0.04 0.12 0.12 0.2 0.12 0.4 c-0.12 0 -0.08 -0.16 -0.12 -0.16 c-0.08 0.44 0 0.68 -0.04 1.16 c0.08 0.12 0.2 -0.2 0.24 -0.08 c0 0.24 0.08 0.32 0 0.52 c-0.24 -0.12 -0.08 0.04 -0.2 0.16 c0 -0.12 0 -0.36 -0.08 -0.2 c0.08 0.08 -0.24 0.52 0 0.56 c-0.04 -0.12 0.24 -0.16 0.24 -0.04 c-0.16 0.12 -0.48 0.64 -0.2 1 c-0.24 -0.04 -0.16 0.24 0 0.24 l0 -0.24 l0.04 0 c0 -0.36 0 -0.56 0.12 -0.72 c0.04 0.32 -0.04 0.56 0 0.72 c1.88 -5.88 3.52 -11.8 5.72 -17.32 c-0.2 -0.08 -0.28 0.04 -0.56 0.08 c-0.28 0.08 -0.6 0 -0.88 0.04 c-0.12 0.04 -0.24 0.24 -0.44 0.24 c-1.04 0.16 -2 0.52 -2.96 0.72 c-0.28 0.04 -0.4 0.04 -0.6 0.12 c-0.36 0.16 -0.88 0.16 -1.16 0.36 z M9.68 18.32 c0.04 0 0.08 0.04 0.16 0.04 l0 -0.16 c-0.08 0 -0.16 0.04 -0.16 0.12 z M9.6 18.36 c0.04 0.04 0 -0.04 0 0 l0 0 z M9.16 18.48 c0.08 0 0.2 0.04 0.2 -0.04 c-0.04 0 -0.04 -0.08 -0.08 -0.08 c0 0.08 -0.12 0.04 -0.12 0.12 z M7.52 18.88 c0.04 0.04 -0.04 0 0 0 l0 0 z M4.04 19.12 c0.12 0.04 0.32 -0.2 0.16 -0.24 c0.04 0.2 -0.12 0.16 -0.16 0.24 z M6.88 19.04 c0.04 0.04 -0.04 -0.04 0 0 l0 0 z M6.48 19.12 l0.16 0 c0 0 0 -0.08 -0.04 -0.08 c-0.04 0.08 -0.08 0.08 -0.12 0.08 z M6.76 19.08 l0 0 l0 0 z M3.92 19.12 c0 0.04 -0.04 0 0 0 l0 0 z M3.88 19.12 c-0.04 0.04 -0.08 0 -0.08 0.08 c0.04 -0.04 0.08 0 0.08 -0.08 z M3.6 19.24 c0.08 0.2 0.08 -0.16 0 0 l0 0 z M6.08 19.2 l-0.16 0 c-0.12 0.2 0.2 0.12 0.16 0 z M6.28 19.24 c0.04 0.2 0.04 -0.16 0 0 l0 0 z M5.72 19.32 c-0.12 0.16 0.12 -0.12 0 0 l0 0 z M3.04 19.44 c0 0 -0.04 -0.04 0 0 l0 0 z M4.76 19.6 c0.04 0 0 0 0 0 l0 0 z M2.52 19.8 c0.16 -0.04 0.12 0 0.24 0.08 c0 -0.12 0 -0.16 -0.08 -0.2 c0 0.12 -0.24 -0.04 -0.16 0.12 z M4.48 19.68 c-0.04 0 -0.12 0 -0.12 0.04 c0.04 0 0.12 0 0.12 -0.04 z M2.28 19.92 l-0.12 -0.12 c-0.08 0.12 0.12 0.24 0.12 0.12 c0.12 -0.04 0.12 0.04 0.16 0.04 c0 -0.08 0.04 -0.08 0.04 -0.16 c-0.04 -0.08 -0.16 0 -0.2 0.12 z M4.88 19.8 c0.08 0.16 0.12 -0.16 0 0 l0 0 z M3.92 19.88 c-0.08 0.16 0.16 -0.12 0 0 l0 0 z M3.88 20.16 c0.32 -0.08 0.68 -0.12 0.96 -0.28 c-0.44 0 -0.76 0.08 -0.96 0.28 z M1.72 20 c-0.16 0 -0.32 0.12 -0.24 0.2 c0 -0.12 0.28 0.04 0.28 -0.12 c-0.04 0 -0.04 -0.04 -0.04 -0.08 c0.08 0.04 0.08 0.12 0.24 0.08 c-0.04 -0.04 0 -0.04 0 -0.12 c-0.08 -0.04 -0.2 -0.08 -0.24 0.04 z M2.08 19.92 c-0.04 0 -0.08 0 -0.08 0.04 c0.04 0 0.08 0 0.08 -0.04 z M2.96 20.16 c0.04 0.04 0 0 0 0 l0 0 z M-0.8 20.2 c-0.32 0.04 0.24 0 0 0 l0 0 z M3.64 20.2 c0.08 0.16 0.12 -0.12 0 0 l0 0 z M1 20.32 l0 0 l0 0 z M3.4 20.32 c0 -0.08 -0.04 -0.08 -0.04 0 c0.04 0 0.04 0.04 0.04 0 z M3.04 20.4 c0.08 0 0.24 0.04 0.16 -0.08 l-0.16 0 l0 0.08 z M4.88 26.4 c-0.04 0.28 0.04 -0.16 0 0 l0 0 z M4.88 26.64 c0.04 0 0.04 0.04 0.08 0.04 c0 -0.04 0 -0.16 -0.08 -0.12 l0 0.08 z M4.96 26.8 l0.12 0 l0 -0.04 l-0.12 0 l0 0.04 z M9.56 27.119999999999997 c0.04 0.04 -0.04 0 0 0 l0 0 z M9.56 27.28 c-0.04 0 -0.08 0 -0.08 0.04 c0 0 0.08 0 0.08 -0.04 z M9.32 27.439999999999998 c0.04 0.04 -0.04 -0.04 0 0 l0 0 z M6.08 37.4 c0.12 0.16 0.04 0.36 0 0.52 c-0.12 0 -0.24 0 -0.12 0.12 c-0.08 0.04 0.12 0 0.2 0.12 c0.08 -0.32 0.28 -0.6 0.24 -0.96 c0.36 -0.44 0.36 -1.32 0.64 -1.76 c0.28 -1.04 0.68 -2.44 1.16 -3.6 c0 -0.44 0.2 -1.08 0.44 -1.48 c0 -0.12 0 -0.2 -0.04 -0.2 c0.28 -0.8 0.64 -1.8 0.68 -2.68 c-1.08 3 -2.12 6.88 -3.2 9.92 z M5.16 27.560000000000002 c0.04 0.04 0 0 0 0 l0 0 z M6 27.72 c0.04 0.16 0.04 -0.2 0 0 l0 0 z M10.16 27.84 c0.04 0.16 0.04 -0.16 0 0 l0 0 z M6.04 27.92 c0 -0.04 -0.08 -0.04 -0.08 0 c0.04 0 0.08 0.08 0.08 0 z M6.04 28.08 c-0.04 0.24 0.04 -0.2 0 0 l0 0 z M9.96 28.52 c-0.08 0.24 0.16 0 0 0 l0 0 z M5.84 29.2 c-0.04 -0.16 0.04 -0.48 -0.08 -0.56 c-0.12 0.2 0 0.48 0.08 0.56 z M9.68 29.439999999999998 c0.12 0.08 0.12 -0.24 0.04 -0.24 c-0.04 0.04 -0.08 0.12 -0.04 0.24 z M5.84 29.64 c0.04 0 0 -0.04 0 0 l0 0 z M9.52 30.16 c-0.04 -0.12 0.12 -0.28 0.04 -0.4 c0 0.16 -0.2 0.32 -0.04 0.4 z M5.84 29.92 c0.04 0.04 0 0 0 0 l0 0 z M5.96 30.52 c0.04 -0.16 0 -0.36 -0.12 -0.4 c0.08 0.16 -0.12 0.36 0.12 0.4 z M9.36 30.6 c0 -0.04 0 -0.12 0.12 -0.08 c-0.04 -0.08 0.04 -0.28 -0.08 -0.24 c0.04 0.08 -0.16 0.2 -0.04 0.32 z M6.4 30.84 c-0.04 -0.16 0.04 -0.2 0.08 -0.32 c-0.04 -0.04 -0.08 -0.08 -0.2 -0.08 c0.12 0.2 -0.12 0.32 0.12 0.4 z M5.96 31.759999999999998 c-0.08 -0.32 0 -0.76 -0.12 -1.12 c0 0.24 -0.12 0.92 0.12 1.12 z M9.32 30.64 c-0.08 0.04 0 0.08 0 0 c0.08 0 0 0 0 0 z M9.48 30.64 c0 0.04 -0.04 0 0 0 l0 0 z M9.24 30.880000000000003 c0.04 0.2 0.04 -0.16 0 0 l0 0 z M9.16 31.439999999999998 c0 -0.12 0.12 -0.32 0 -0.4 c-0.04 0.08 -0.08 0.32 0 0.4 z M6.28 31.119999999999997 c0.04 0 0 0 0 0 l0 0 z M8.88 32.2 c0.08 -0.16 0.28 -0.48 0.16 -0.68 c-0.08 0.2 -0.28 0.52 -0.16 0.68 z M8.72 31.759999999999998 c0.04 0.04 0 0 0 0 l0 0 z M5.92 33.24 c-0.08 -0.48 0.16 -1.12 -0.12 -1.36 c0.04 0.6 -0.12 1.12 0.12 1.36 z M8.88 32.28 c-0.04 0 -0.08 0 -0.08 0.04 c0 0 0.08 0 0.08 -0.04 z M8.2 34.44 c0.32 -0.28 0.12 -1.24 0.52 -1.4 c-0.12 -0.28 0.16 -0.52 0 -0.68 c-0.16 0.68 -0.48 1.36 -0.52 2.08 z M8.2 33.04 c-0.04 0 -0.12 0 -0.12 0.04 c0.04 0 0.12 0 0.12 -0.04 z M5.8 35.44 c-0.08 -0.56 0.2 -1.64 0 -2.16 c0.04 0.72 -0.36 1.52 0 2.16 z M8 35.08 c0.08 -0.04 0.2 -0.44 0.04 -0.44 c0.08 0.24 -0.2 0.32 -0.04 0.44 z M7.92 35.4 c0 -0.04 0.12 -0.2 0 -0.2 c-0.04 0.04 -0.12 0.16 0 0.2 z M7.32 35.44 c0.12 0.04 0.2 -0.12 0.08 -0.16 c0 0.08 -0.04 0.12 -0.08 0.16 z M5.4 36.84 c0.08 0.96 -0.36 1.56 -0.2 2.44 c0.16 -0.48 0.2 -1.12 0.2 -1.68 c0.2 -0.68 0.4 -1.52 0.24 -2.08 c-0.12 0.44 -0.04 0.96 -0.24 1.32 z M7.64 36.08 c0.16 -0.04 0.2 -0.48 0.16 -0.6 c-0.04 0.24 -0.16 0.36 -0.16 0.6 z M6.2 35.76 c0.04 0.16 0.04 -0.16 0 0 l0 0 z M6.08 35.96 c-0.08 0.12 -0.16 0.4 -0.08 0.44 c0.16 0 0.28 -0.28 0.2 -0.48 c0 0.12 -0.16 -0.12 -0.16 0 c0.04 0 0.08 0 0.04 0.04 z M7.52 36.56 c0.12 0 0.16 -0.32 0.08 -0.36 c-0.04 0.12 -0.12 0.2 -0.08 0.36 z M7.12 36.4 c-0.04 0.04 -0.08 0 -0.08 0.08 c0 -0.04 0.08 0 0.08 -0.08 z M6 36.6 c-0.04 0.4 0.12 -0.12 0 0 l0 0 z M7.28 37.2 c0.16 0 0.28 -0.48 0.12 -0.48 c-0.08 0.16 -0.04 0.28 -0.12 0.48 z M7.08 37.88 c0.12 0 0.16 -0.24 0.08 -0.28 c-0.04 0.08 -0.04 0.2 -0.08 0.28 z M6.92 38.32 c0.16 0.08 0.12 -0.2 0.04 -0.2 c0.04 0.12 -0.08 0.12 -0.04 0.2 z M6.04 38.32 c-0.08 0.04 0 0.04 0 0 c0.2 0 0 -0.04 0.12 -0.12 c-0.12 0 -0.12 0.08 -0.12 0.12 z M6.52 38.32 l-0.08 0 c0.04 0 0.08 0.08 0.08 0 z M6.88 38.72 c-0.04 -0.12 0.12 -0.2 0 -0.24 c0.04 0.08 -0.12 0.2 0 0.24 z M6.76 38.96 c-0.04 0.28 0 -0.16 0 0 l0 0 z M4.84 40.8 c0.04 -0.44 0.48 -1.08 0.24 -1.4 c-0.08 0.52 -0.36 0.92 -0.24 1.4 z M6.6 39.64 c0 -0.04 0.12 -0.24 -0.08 -0.2 c0.04 0.08 0 0.16 0.08 0.2 z M6.28 40.4 c0 -0.12 0.2 -0.2 0.08 -0.32 c-0.04 0.08 -0.16 0.24 -0.08 0.32 z M6.24 40.52 c0.04 0.04 -0.04 -0.04 0 0 l0 0 z M6.24 40.8 c0 -0.08 0 -0.12 -0.08 -0.16 c-0.04 0.08 0 0.16 0.08 0.16 z M6.2 41.2 c0.04 -0.08 0 -0.32 -0.16 -0.36 c0.04 0.12 0 0.36 0.16 0.36 z M5.72 41.96 c0.08 0.2 -0.16 0.36 -0.08 0.44 c0.16 -0.24 0.52 -0.8 0.36 -1.12 c-0.12 0.2 -0.12 0.76 -0.28 0.68 z M5.48 43 c0.12 -0.04 0.16 -0.36 0.08 -0.44 c0 0.16 -0.08 0.24 -0.08 0.44 z M5.28 43.88 c0.04 0.2 0.04 -0.2 0 0 l0 0 z M3.84 44.76 c0.04 0.2 0.04 -0.2 0 0 l0 0 z M14.4 16.44 c0 -0.04 0.04 -0.04 0.04 -0.04 c0 0.04 0 0.04 -0.04 0.04 z M15.84 16.44 l0 0 c0.04 0.04 0 0 0 0 z M14.2 16.48 c0 -0.04 0.04 -0.04 0.08 -0.04 c0 0.04 -0.04 0.04 -0.08 0.04 z M12.4 16.56 c0.12 -0.12 -0.12 0.16 0 0 l0 0 z M15.92 16.6 c0 -0.04 0.04 -0.04 0.08 -0.04 c0 0.04 -0.04 0.04 -0.08 0.04 z M16.84 16.68 c-0.08 0 -0.12 -0.04 -0.12 -0.12 c0.08 -0.04 0.12 0.04 0.12 0.12 z M11.8 16.6 c0.04 0 0.04 0.04 0.12 0.04 l0 0.08 c-0.12 0 -0.28 0.04 -0.4 0.04 c-0.04 -0.16 0.24 -0.04 0.28 -0.16 z M16.2 16.68 l0 0 c0.04 0.04 -0.04 0 0 0 z M21 16.72 l0 0 s-0.04 0 0 0 z M15.8 16.76 c-0.04 0.04 -0.04 0.08 -0.04 0.12 c-0.12 -0.16 -0.32 0.24 -0.32 -0.08 c0.16 -0.04 0.16 -0.08 0.36 -0.04 z M20.68 16.72 c0 0.12 -0.4 0.28 -0.36 0.04 c0.08 -0.04 0.28 -0.04 0.36 -0.04 z M20.76 16.76 c0 -0.04 0.08 0 0.08 -0.04 c-0.04 0 -0.08 0 -0.08 0.04 z M12.52 16.8 c-0.04 0.16 -0.12 0.16 -0.24 0.04 c0 -0.12 0.2 -0.12 0.24 -0.04 z M15.88 16.8 l0 0 c0.04 -0.04 0 -0.08 0 0 z M16.4 16.76 c0.08 0 0.04 0.12 0.04 0.16 c-0.08 0 -0.08 -0.12 -0.04 -0.16 z M11.08 16.8 c0.08 -0.04 0.08 0.04 0.08 0.08 c-0.04 0 -0.04 0.04 -0.04 0.04 c-0.04 0 -0.04 -0.08 -0.04 -0.12 z M15.88 16.8 l0 0 c-0.04 0.04 0 0.04 0 0 z M10.52 16.84 c0.08 0 0.04 0.12 0.08 0.2 c-0.2 -0.04 -0.24 0.12 -0.44 0.08 c-0.04 -0.32 0.32 0 0.36 -0.28 z M10.84 16.84 l0.08 0 l0 0.08 l-0.08 0 l0 -0.08 z M11.8 17.2 c0.04 -0.2 -0.16 -0.16 -0.04 -0.36 c0.16 0.12 0.08 0 0.28 0 c0.04 0.16 -0.04 0.16 0 0.32 c-0.16 -0.04 -0.12 0 -0.24 0.04 z M11.84 17.08 l0.12 0 l0 -0.08 l-0.12 0 l0 0.08 z M15.04 16.88 c0 -0.04 0.04 -0.04 0.08 -0.04 c0 0.04 -0.04 0.04 -0.08 0.04 z M27.64 16.88 c0.04 -0.16 0.04 0.2 0 0 l0 0 z M11.6 17.08 c-0.04 0 -0.04 -0.04 -0.04 -0.08 c-0.04 0 0 0.12 -0.16 0.08 c-0.08 -0.24 0.44 -0.16 0.2 0 z M14.92 16.92 l0.12 0 l0 0.12 l-0.12 0 l0 -0.12 z M16.2 17 c0 -0.08 0.08 -0.08 0.08 0 c0 0.04 -0.04 0 -0.08 0 z M11.24 17.04 c0.04 -0.2 0.04 0.16 0 0 l0 0 z M10.96 17.04 c0.12 0.04 -0.04 0.16 -0.12 0.12 c-0.08 -0.16 0.16 0 0.12 -0.12 z M11.08 17.08 c0.04 -0.2 0.04 0.16 0 0 l0 0 z M14.84 17.08 l0 0 c0.04 0.04 -0.04 0 0 0 z M9.96 17.12 c0 0.08 -0.24 0.08 -0.16 -0.04 l0.12 0 c0 0.04 0 0.04 0.04 0.04 z M9.96 17.12 c0.08 -0.12 0.24 0.08 0 0 l0 0 z M9.72 17.16 c0 0.08 -0.16 0.08 -0.2 0.04 c0.08 -0.08 0.12 -0.04 0.2 -0.04 z M10.6 17.16 l0 0 l0 0 z M9.4 17.16 c0.2 0.12 -0.12 0.12 0 0 l0 0 z M10.44 17.16 c0.04 0.2 -0.24 0.04 -0.28 0.16 c-0.08 -0.08 0.12 -0.16 0.28 -0.16 z M11.52 17.2 c0.12 -0.08 -0.12 0.16 0 0 l0 0 z M9.32 17.2 c-0.16 0.12 -0.4 0.16 -0.6 0.28 l0 -0.24 c0.32 -0.04 0.44 0 0.6 -0.04 z M11.32 17.36 c-0.16 0.08 -0.04 -0.12 -0.2 -0.08 c0 -0.12 0.24 -0.08 0.2 0.08 z M11.8 17.2 l0 0 c-0.08 0 0 0.04 0 0 z M9.72 17.24 c0.04 0 0.12 0.08 0.2 0.08 c-0.04 0.12 -0.28 0.08 -0.2 -0.08 z M25.72 17.28 c0.08 0 0.08 -0.04 0.2 -0.04 c0 0.12 -0.2 0.08 -0.2 0.2 c-0.08 -0.04 -0.08 -0.08 -0.16 -0.12 c0 -0.04 0.16 -0.12 0.16 -0.04 z M11.96 17.32 l0 0 c0.04 0.04 -0.04 0 0 0 z M24.8 17.56 c0.12 -0.2 0.4 -0.16 0.52 -0.2 c0 0.2 -0.32 0.04 -0.28 0.24 c-0.08 0.04 -0.2 0.04 -0.24 -0.04 z M25.36 17.32 l0.12 0 l0 0.12 l-0.12 0 l0 -0.12 z M8.36 17.44 l0 0 s-0.04 -0.04 0 0 z M10.68 17.44 c0.08 -0.16 0.12 0.16 0 0 l0 0 z M10.88 17.36 c0.12 0.04 0.2 0.28 0 0.24 c-0.08 -0.08 0.04 -0.08 0 -0.24 z M11.08 17.48 l0 0 c0.04 0.04 0 -0.04 0 0 z M8.08 17.52 l0 0 c-0.04 0.24 0.04 -0.2 0 0 z M10.4 17.52 l0 0 c0.04 0.04 -0.04 0 0 0 z M7.76 17.6 c0.04 -0.16 0.04 0.16 0 0 l0 0 z M8.72 17.6 l0 0 c0.04 0.04 0 0 0 0 z M10.48 17.56 c0.08 0.12 -0.2 0.12 -0.04 0.12 c0 0.04 -0.04 0.04 -0.04 0.04 l-0.12 0 l0 -0.12 c0.04 -0.04 0.12 -0.04 0.2 -0.04 z M11.4 17.56 c0.16 -0.08 0.16 0.2 0 0.12 l0 -0.12 z M24.8 17.56 c-0.08 0.12 -0.12 0.08 -0.32 0.12 c0 -0.16 0.16 -0.12 0.32 -0.12 z M8.64 17.68 c0.04 -0.2 0.04 0.12 0 0 l0 0 z M8.4 17.68 l0.08 0 l-0.08 0 z M9.4 17.68 l0 0 c0.04 0.04 0 0 0 0 z M10.04 17.68 c0 0 0.08 -0.04 0.12 0 c0.04 0 -0.16 0.08 -0.12 0 z M10.92 17.68 c0.08 0.04 0.12 0 0.2 0 c0.04 0.08 -0.12 0.04 -0.2 0.08 l0 -0.08 z M24.12 17.72 c0 -0.04 0.04 -0.08 0.12 -0.04 c0 0 -0.04 0.04 -0.12 0.04 z M24.32 17.68 l0 0 c0 0.04 -0.04 0 0 0 z M24 17.72 c0.04 -0.16 0.04 0.2 0 0 l0 0 z M9.12 17.72 l0.04 0 l0 0.08 l-0.04 0 l0 -0.08 z M9.6 17.76 c0.04 -0.16 0.04 0.2 0 0 l0 0 z M10.48 17.76 c0.08 -0.16 0.08 0.2 0 0 l0 0 z M10.8 17.76 l0 0 c0 0.04 -0.04 0 0 0 z M23.8 17.76 c0 -0.04 0.08 -0.04 0.12 -0.04 c0 0.04 -0.08 0.04 -0.12 0.04 z M24.12 17.72 l0 0 c-0.08 0.04 0 0.04 0 0 z M7.76 17.76 c0.08 0 0.16 0 0.16 0.12 l-0.16 0 l0 -0.12 z M9.52 17.76 c-0.04 0.12 -0.16 0.16 -0.36 0.16 c0.08 -0.12 0.24 -0.12 0.36 -0.16 z M23.64 17.8 l0 0 c0 0.04 -0.04 0 0 0 z M6.72 17.8 l0.08 0 l0 0.12 l-0.08 0 l0 -0.12 z M7.6 17.8 c0.04 0.16 -0.68 0.44 -0.72 0.2 c0.36 -0.04 0.48 -0.08 0.72 -0.2 z M23.36 17.8 l0.12 0 c0 0.12 -0.08 0.12 -0.16 0.12 c0 -0.04 0.04 -0.04 0.04 -0.12 z M29.84 17.96 c0.04 0 0.04 0 0.04 -0.04 c0.36 0 0.4 -0.16 0.72 -0.04 c-0.08 0.28 -0.48 0 -0.52 0.28 c-0.12 -0.12 -0.2 -0.08 -0.24 -0.2 z M8.96 17.92 c0.12 -0.2 0.08 0.16 0 0 l0 0 z M6.48 17.96 l0 0 c0.08 -0.04 0 -0.04 0 0 z M22.92 17.96 l0 0 c0.04 0.04 0 0 0 0 z M6.48 17.96 c0 0.08 -0.08 0.08 -0.04 0.2 c0.2 0 0.28 -0.16 0.4 -0.04 c-0.08 0.08 -0.36 0.08 -0.56 0.2 c-0.08 -0.12 0.2 -0.16 0 -0.2 c0 -0.12 0.08 -0.16 0.2 -0.16 z M8.2 17.96 c-0.04 0.08 -0.08 0.08 -0.16 0.08 c0.04 -0.04 0.08 -0.08 0.16 -0.08 z M8.24 17.96 c0.08 0.04 0.12 0.08 0.12 0.16 c-0.08 -0.04 -0.12 -0.08 -0.12 -0.16 z M9.24 18 c0.12 -0.08 0.12 0.2 0 0.16 l0 -0.16 z M7.36 18.12 c0.08 0.04 0.12 0.12 0.16 0.24 c-0.08 0 -0.08 0 -0.12 0.04 c-0.08 -0.12 -0.08 -0.2 -0.04 -0.28 z M8 18.16 c-0.08 0.08 -0.2 0.08 -0.28 0.16 c0 -0.12 0.08 -0.16 0.28 -0.16 z M8.88 18.16 c0.04 0 0.08 0 0.08 0.08 c-0.08 0.04 -0.08 -0.04 -0.08 -0.08 z M6.04 18.16 c0.08 0.04 0.2 0.04 0.16 0.2 l-0.16 0 l0 -0.2 z M8.6 18.2 l0 0 c0 0.04 -0.04 0 0 0 z M5.64 18.76 c0.04 -0.08 0.08 -0.12 0.08 -0.16 c-0.04 -0.08 -0.12 -0.08 -0.16 -0.12 c-0.08 0 -0.08 0.16 0 0.16 c-0.04 0.12 -0.24 -0.36 -0.28 -0.04 c-0.2 -0.12 0.04 -0.16 0.04 -0.24 c0.12 0.16 0.32 0.04 0.32 -0.16 c0.16 0.12 0.2 0.44 0 0.56 z M5.8 18.32 c0.04 -0.16 0.08 0.16 0 0 l0 0 z M7.84 18.36 c0.04 -0.08 0.12 -0.04 0.12 0 c-0.04 0.08 -0.04 0 -0.12 0 z M8.04 18.36 l0 0 c0.04 0.04 0 -0.04 0 0 z M7.12 18.36 c-0.04 0.12 -0.08 0.2 -0.2 0.24 c-0.04 -0.04 -0.04 -0.12 -0.04 -0.2 c0.12 0.04 0.12 -0.08 0.24 -0.04 z M6.76 18.44 c0.04 0.04 0.08 0.08 0.08 0.2 c-0.08 -0.04 -0.16 -0.12 -0.08 -0.2 z M6.6 18.56 c0.04 -0.16 0.12 0.12 0 0 l0 0 z M5.8 18.6 c0.12 -0.12 0.16 0.16 0.36 0.04 c-0.08 0.08 -0.2 0.12 -0.36 0.12 c0 -0.12 0.16 -0.12 0 -0.16 z M10.28 18.6 c0 0.04 -0.16 0 -0.16 0.08 c-0.12 -0.04 0.04 -0.12 0.16 -0.08 z M7.08 18.64 c-0.04 0.12 -0.12 0.12 -0.2 0.04 c0 -0.04 0.12 -0.04 0.2 -0.04 z M6.64 18.76 l0 0 c0.04 0 -0.04 -0.04 0 0 z M6.08 18.84 l0 0 c0 -0.08 -0.04 0 0 0 z M9.36 18.8 c0 0.08 -0.12 0 -0.12 0.08 c-0.12 -0.04 0.04 -0.12 0.12 -0.08 z M2.84 18.84 c0.04 0 0.08 0.04 0.08 0.04 c0.04 0.12 -0.16 0.08 -0.08 -0.04 z M6.08 18.84 c0.16 0 -0.04 0.2 0 0 l0 0 z M9.08 18.88 l0 0 c0.04 0.04 -0.04 0 0 0 z M8.92 18.88 c-0.04 0.08 -0.08 0.08 -0.2 0.12 c-0.04 -0.16 0.12 -0.08 0.2 -0.12 z M8.44 19.04 c0 -0.04 0.04 -0.04 0.08 -0.04 c0 0.04 -0.04 0.04 -0.08 0.04 z M2.28 19.08 c0 -0.04 0.08 -0.04 0.12 -0.04 c-0.04 0.04 -0.08 0.04 -0.12 0.04 z M5.32 19.12 c0 -0.04 0.04 -0.04 0.04 -0.08 l0.12 0 l0 0.16 c-0.08 -0.04 -0.12 -0.08 -0.16 -0.08 z M8.2 19.12 c0 -0.04 0.04 -0.04 0.08 -0.04 c0 0.04 -0.08 0.04 -0.08 0.04 z M7.76 19.12 c0.16 0.16 -0.2 0.12 0 0 l0 0 z M1.56 19.28 l0 0 c0.04 0.04 -0.04 0 0 0 z M7.48 19.28 c0 -0.04 0.08 -0.04 0.12 -0.04 c0 0.04 -0.08 0.04 -0.12 0.04 z M1.44 19.48 c-0.08 -0.04 -0.28 0.04 -0.24 -0.12 c0.08 0.04 0.12 0.08 0.12 -0.04 c0.08 0 0.16 0.04 0.12 0.16 z M4.04 19.36 l0 0 c0.04 0.04 0 0 0 0 z M4.4 19.32 c0.08 0.04 0 0.08 0 0.16 c-0.04 -0.04 0 -0.08 0 -0.16 z M7.04 19.36 c-0.36 0.2 -0.76 0.28 -1.24 0.32 c0.36 -0.16 0.84 -0.2 1.24 -0.32 z M1.04 19.48 l0 0 c0.04 -0.04 -0.04 -0.08 0 0 z M4.08 19.44 c0.16 -0.04 0.12 0.04 0.24 0.04 c0 0.04 -0.2 0.12 -0.24 0.04 l0 -0.08 z M1.04 19.48 c0.04 0.16 -0.2 -0.04 0 0 l0 0 z M3.88 19.6 c0.12 -0.08 -0.12 0.12 0 0 l0 0 z M-2.2 22.52 l0 0 c0.04 0 -0.04 -0.04 0 0 z M-2.4 22.6 c-0.04 0.08 -0.08 0.08 -0.16 0.08 c0 -0.08 0.08 -0.08 0.16 -0.08 z M5.72 26.16 l0 0 c0 0.04 -0.04 0 0 0 z M5.32 29.119999999999997 l0 0 c0.04 0.04 0 0 0 0 z M5.32 29.2 c0.2 0.08 0.04 0.52 0.08 0.8 c-0.08 -0.24 -0.16 -0.6 -0.08 -0.8 z M5.36 30.2 c0.12 -0.08 0 0.4 0 0 l0 0 z M5.36 30.72 l0 0 c0.04 0 0 -0.04 0 0 z M5.4 31.119999999999997 l0 0 c0.04 0 0 0 0 0 z M6.36 32.56 c0.08 0.12 0.28 0.64 -0.08 0.6 c0.2 -0.16 -0.04 -0.36 0.08 -0.6 z M16.71 31.240000000000002 l0 -0.12 c-0.08 0 -0.08 0.12 0 0.12 l0 0.16 l-0.12 0 c-0.12 0.64 -0.68 1.52 -1.12 1.84 c0.12 0.52 -0.68 0.92 -0.44 1.44 c-0.24 0.12 -0.4 0.72 -0.32 1.08 c-0.36 0.08 -0.24 0.64 -0.44 0.88 c1.36 -1.16 2.48 -3.16 4.72 -3.4 c0.04 0.12 0.12 0.28 0.36 0.24 c0.16 0.16 0.16 0.2 0.24 0.36 c0.16 0 0.28 0 0.36 0.04 c0.72 1.56 0 4.4 1.4 5.52 c0.08 0 0 -0.2 0.16 -0.16 c-0.04 0.12 0.08 0.12 0.12 0.24 c0.88 -0.04 1.68 -0.16 2.24 -0.8 c2.72 -1.68 5.16 -3.96 7.88 -5.8 c0.04 1 -1.12 1.2 -1.4 2.04 c-0.08 0 -0.12 -0.08 -0.08 -0.16 c-0.16 0.2 -0.48 0.24 -0.48 0.56 c-0.16 0.04 -0.44 0.08 -0.44 0.36 c-0.08 0 -0.08 -0.08 -0.16 -0.12 c-0.08 0.4 -0.48 0.2 -0.52 0.68 c0.24 -0.08 0.2 -0.2 0.48 -0.24 c-0.04 0.52 -0.6 0.32 -0.72 0.76 c0.04 0.08 0.08 0 0.16 0 c-0.04 0.32 -0.4 0.48 -0.6 0.48 c0 0.2 0.2 0.24 0.08 0.4 c-0.16 0.04 -0.16 -0.12 -0.2 -0.2 c-0.2 0.68 -1 0.76 -1.16 1.48 c-0.08 0 -0.12 0 -0.16 -0.04 c-0.64 0.92 -1.92 1.84 -3.16 2.2 c-3.04 0.08 -4.32 -2.72 -4.8 -5.76 c-2.28 1.68 -3.6 4.28 -5.48 6.36 l0 0.28 c-0.32 0.32 -0.48 0 -0.84 -0.04 c-0.36 -0.56 -0.76 -1.4 -0.88 -2.04 c0.44 -1.52 1 -3.28 1.4 -4.92 c-0.04 -0.08 -0.08 0 -0.16 0 c0 -0.24 -0.2 -0.56 0.08 -0.76 c0.08 0 0.12 0.04 0.12 0.08 c0.68 -1 0.84 -2.6 1 -3.88 c0.08 0 0.04 0.08 0.12 0.08 c0.16 -0.76 0.56 -1.6 0.44 -2.28 c0.16 0.12 0.32 -0.4 0.12 -0.48 c0 -0.08 0.12 -0.04 0.16 0 c0 -0.16 0 -0.28 0.08 -0.36 c0 -0.08 -0.16 -0.04 -0.08 -0.2 c0.4 -0.2 0.08 -0.84 0.44 -1.08 c-0.04 -0.08 -0.08 -0.04 -0.16 -0.04 c0.16 -0.04 0.12 -0.24 0.24 -0.32 c0 -0.16 -0.12 0.04 -0.16 -0.08 c0.16 -0.12 0.24 -0.28 0.32 -0.52 c0 -0.12 -0.16 0 -0.12 0.08 c0.08 -0.36 0.16 -0.8 0.4 -1.16 c-0.04 -0.16 -0.12 0.2 -0.16 0 s0.08 -0.24 0.24 -0.28 c0.08 -0.96 0.48 -1.52 0.48 -2.44 c0.08 0 0.08 0.08 0.16 0.04 c0.04 -0.56 0.32 -1.12 0.32 -1.72 c0.08 0 0.04 0.12 0.12 0.16 c0.04 -0.12 0.08 -0.28 0.12 -0.4 c-0.04 -0.12 -0.12 0.12 -0.12 0.16 c-0.08 -0.28 0.28 -0.56 0.36 -0.88 c0 -0.16 -0.16 0.12 -0.12 -0.04 c-0.04 -0.16 0.04 -0.16 0.12 -0.12 c0 -0.4 0.28 -0.6 0.2 -1.08 c0.16 0 0.16 -0.16 0.24 -0.24 c0 -0.04 -0.08 -0.08 -0.08 0 c0.2 -0.64 0.36 -1.04 0.64 -1.88 c-0.04 -0.16 -0.08 0.16 -0.12 0.2 c-0.16 -0.44 0.56 -0.64 0.28 -1.12 l0.16 0 c-0.04 -0.28 -0.08 -0.64 0.24 -0.76 c-0.08 -0.16 -0.04 -0.16 0 -0.32 c0.08 0.28 0.16 -0.24 0.24 -0.4 c0.12 -0.16 0.16 -0.32 0.08 -0.52 c1.04 -1.48 1.12 -4.28 3.56 -4.04 c0.24 0.44 0.8 0.56 1.2 0.88 c0.72 1.2 0.52 2.56 0.28 4 c-0.16 -0.04 -0.12 0.08 -0.2 0.12 c0 0.08 0.04 0.16 0.16 0.12 c-0.16 0.2 -0.08 0.56 -0.28 0.64 c0.12 0.88 -0.52 1.84 -0.64 2.8 c-0.08 0.08 -0.12 0 -0.24 0 l0 0.24 c0.04 -0.04 0.04 -0.08 0.04 -0.16 c0.2 0.48 -0.36 1 -0.36 1.6 c-0.12 0.08 -0.12 -0.04 -0.32 0 c0.04 0.08 0.16 0.08 0.2 0.12 c-0.28 1.08 -0.84 1.96 -1 2.92 c-0.08 -0.04 -0.16 -0.12 -0.24 -0.04 c-0.12 0.08 0.2 0.16 0.16 0.36 c-0.16 0.32 -0.6 0.6 -0.4 1 l-0.2 0 c0.12 0.12 0 0.24 -0.12 0.24 c0.04 0.16 0 0.2 0 0.36 c-0.16 0.04 -0.16 -0.04 -0.24 -0.04 c0 0.12 0.04 0.2 0.16 0.2 c0 0.32 -0.44 0.32 -0.28 0.68 c-0.4 0.04 -0.2 0.72 -0.6 0.76 c0.24 0.44 -0.6 0.92 -0.36 1.36 c-0.08 0.16 -0.4 0.12 -0.32 0.48 c-0.16 0.04 -0.12 -0.12 -0.2 -0.12 c0.12 0.32 -0.12 0.48 0.04 0.72 c-0.84 0.76 -0.72 1.96 -1.64 2.56 c0 0.08 0.16 0.04 0.16 0.08 c-0.04 0.16 -0.12 0.32 -0.24 0.16 c0.16 0.4 -0.24 0.56 -0.32 0.84 l-0.08 0 z M21.67 9.399999999999999 c0.04 0.04 -0.04 0 0 0 l0 0 z M17.87 26.6 c0.04 0.08 0.08 0 0 0 c0.6 -1.2 1.36 -2.72 1.88 -4.32 c0.08 0 0.16 0.2 0.16 0 c0.04 -0.16 -0.16 -0.04 -0.12 -0.2 c1 -2.08 1.56 -3.76 2.32 -6.04 c-0.2 -0.04 -0.08 0.2 -0.2 0.24 c0.36 -2.04 1.48 -4.4 1.12 -6.92 c-0.76 0.04 -0.84 0.96 -1.28 1.16 c-0.76 1.68 -1.48 3.48 -2.16 5.12 c0 0.16 0.08 0.24 0.08 0.4 c-0.52 0.64 -0.64 2 -1.08 2.68 c-0.64 3.52 -2.12 7.16 -2.64 10.76 c0.76 -1.4 1.36 -2.92 2.2 -4.24 c0.96 -2.36 2.16 -5.24 3.28 -7.72 c-1 3.52 -2.76 6.48 -3.88 9.72 c-0.56 0.44 -0.84 1.56 -1.24 2.28 c0.44 -0.2 0.64 -0.84 0.72 -1.28 c0.32 0.04 0.4 -0.6 0.4 -0.92 c0.12 0 0.12 0.08 0.2 0.04 c0.12 -0.24 0.08 -0.56 0.24 -0.76 z M21.23 9.84 c-0.08 -0.12 0.08 -0.24 -0.08 -0.28 c-0.08 0.08 -0.08 0.32 0.08 0.28 z M20.95 10.04 c-0.04 0.28 0.04 -0.2 0 0 l0 0 z M20.47 10.280000000000001 l0.16 0 c0 -0.08 -0.08 -0.12 -0.16 -0.08 l0 0.08 z M21.11 10.36 c0 0.04 -0.04 0 0 0 l0 0 z M20.39 10.600000000000001 c-0.04 0.32 0 -0.16 0 0 l0 0 z M19.95 11.2 c-0.16 0.16 0.16 0.12 0 0 l0 0 z M23.35 11.48 c0.04 0.04 -0.04 0 0 0 l0 0 z M19.79 11.64 l0 0.08 c0.12 0.08 0.16 -0.16 0.04 -0.16 c0 0.04 0 0.08 -0.04 0.08 z M23.39 11.8 c0.08 -0.04 0.04 -0.24 -0.08 -0.24 c0 0.12 0 0.24 0.08 0.24 z M19.75 12.04 l0 -0.16 c-0.2 -0.04 -0.16 0.2 0 0.16 z M20.55 12.120000000000001 c-0.12 0.16 0.16 -0.12 0 0 l0 0 z M19.55 12.280000000000001 c0.16 0.04 0.2 -0.16 0.04 -0.16 c0 0.04 -0.04 0.08 -0.04 0.16 z M23.310000000000002 12.16 c0.04 0.04 -0.04 -0.04 0 0 l0 0 z M19.91 12.52 c0 -0.08 0.12 -0.08 0.08 -0.24 c-0.16 -0.04 -0.2 0.2 -0.08 0.24 z M23.27 12.36 c0.04 0.16 0.04 -0.2 0 0 l0 0 z M19.43 12.64 c0 0.04 0 0.08 0.04 0.12 c0.12 0 0.12 -0.08 0.24 0 c0.04 -0.2 -0.24 -0.16 -0.28 -0.12 z M23.11 12.760000000000002 l0.24 0 c0 -0.12 -0.12 -0.12 -0.24 -0.12 l0 0.12 z M19.95 13.079999999999998 c0.04 0.16 0.04 -0.2 0 0 l0 0 z M18.990000000000002 13.64 c0.24 0.04 0.16 -0.24 0.28 -0.32 c0 0.04 0 0.16 0.04 0.16 c0.08 -0.04 0.12 -0.36 -0.08 -0.32 c-0.12 0.12 -0.16 0.32 -0.24 0.48 z M19.75 13.600000000000001 c0.12 0.2 0.08 -0.16 0 0 l0 0 z M18.95 14.120000000000001 c0 -0.08 0.16 -0.32 0.04 -0.4 c-0.08 0.08 -0.2 0.32 -0.04 0.4 z M19.35 14.04 c0.04 0 0 -0.04 0 0 l0 0 z M19.19 14.16 l0.12 0 c0 -0.08 -0.04 -0.12 -0.12 -0.08 l0 0.08 z M19.07 14.399999999999999 c0 -0.12 0 -0.24 -0.12 -0.24 c0 0.12 0.04 0.2 0.12 0.24 z M18.79 14.559999999999999 c-0.16 0.08 -0.32 0.32 -0.24 0.48 c0.16 -0.08 0.2 -0.28 0.24 -0.48 c0.08 -0.04 0.12 -0.08 0.16 -0.16 c-0.2 0.08 -0.04 -0.2 -0.16 -0.2 c-0.08 0.12 -0.04 0.24 0 0.36 z M22.91 14.52 c0.2 0 0.16 -0.16 0.04 -0.2 c0 0.08 0 0.16 -0.04 0.2 z M19.03 14.8 c0 -0.12 0.04 -0.16 0.16 -0.16 l0 -0.08 c-0.08 0 -0.08 -0.04 -0.12 -0.04 c-0.04 0.04 -0.24 0.2 -0.04 0.28 z M19.35 14.64 l0.12 0 l0 -0.08 l-0.12 0 l0 0.08 z M22.35 14.879999999999999 c-0.08 0.28 0.2 0.04 0 0 l0 0 z M18.47 15.16 c-0.08 0.28 0.2 0.04 0 0 l0 0 z M18.83 15.280000000000001 c0.16 0.16 0.08 -0.16 0 0 l0 0 z M22.23 15.32 l0.12 0 l0 -0.08 l-0.12 0 l0 0.08 z M19.35 15.36 c0.08 0.2 0.08 -0.2 0 0 l0 0 z M18.59 15.52 c-0.08 0 -0.08 -0.08 -0.12 -0.12 c-0.04 0.12 0.12 0.24 0.12 0.12 z M18.35 15.96 c0.04 -0.12 0.2 -0.4 0 -0.44 c-0.04 0.04 -0.08 0.36 0 0.44 z M18.71 15.719999999999999 c0.12 0.04 0.12 -0.24 0 -0.16 l0 0.16 z M22.07 15.96 c0.12 0.04 0.12 -0.24 0 -0.16 l0 0.16 z M18.83 16.12 c0.12 0.08 0.12 -0.2 0.04 -0.16 c0 0.04 -0.04 0.08 -0.04 0.16 z M18.23 16.08 l0 0.12 c0.12 0.04 0.12 -0.16 0.04 -0.16 c0 0.04 0 0.04 -0.04 0.04 z M19.19 16.08 c0 0.04 -0.04 0 0 0 l0 0 z M18.07 16.56 c0.12 -0.04 0.24 -0.08 0.28 -0.2 c-0.08 0 -0.04 -0.12 -0.2 -0.08 c0.04 0.16 -0.12 0.12 -0.08 0.28 z M18.47 16.36 c0 0.04 -0.04 0 0 0 l0 0 z M18.47 16.6 c0 0.04 -0.04 0 0 0 l0 0 z M18.75 16.68 c0.04 0.16 0.04 -0.2 0 0 l0 0 z M18.39 16.76 c0.04 0.04 0 0 0 0 l0 0 z M18.07 16.96 c0.08 -0.08 0.04 -0.24 -0.08 -0.2 c-0.04 0.12 0 0.2 0.08 0.2 z M18.310000000000002 17.04 c0.12 0.08 0.12 -0.2 0.04 -0.2 c0 0.08 -0.08 0.12 -0.04 0.2 z M17.79 17.72 c0.16 -0.2 0.16 -0.52 0.12 -0.76 c-0.04 0.2 -0.24 0.72 -0.12 0.76 z M18.11 17.48 c0.16 0 0.32 -0.36 0.16 -0.4 c0 0.2 -0.12 0.28 -0.16 0.4 z M18.03 17.52 c0 -0.08 0.16 -0.24 0.04 -0.32 c0 0.08 -0.16 0.28 -0.04 0.32 z M18.47 17.88 c-0.08 -0.28 0.28 -0.48 0.04 -0.6 c-0.04 0.16 -0.2 0.44 -0.04 0.6 z M17.91 17.68 c0.04 0.04 0 -0.04 0 0 l0 0 z M18.11 17.68 c0.04 0.04 0 -0.04 0 0 l0 0 z M18.03 17.92 l0.08 0 l0 -0.12 l-0.08 0 l0 0.12 z M17.55 18.44 c0.04 -0.2 0.16 -0.36 0.28 -0.48 c-0.2 -0.16 -0.48 0.4 -0.28 0.48 z M21.67 17.96 l0 0.08 c0.12 0.08 0.12 -0.16 0.04 -0.12 c0 0.04 0 0.04 -0.04 0.04 z M17.75 18.52 c0 -0.08 0.08 -0.2 -0.08 -0.24 c0.04 0.08 -0.04 0.28 0.08 0.24 z M18.15 18.6 c0.04 0 0 -0.04 0 0 l0 0 z M17.31 18.92 c0.16 0.04 0.12 -0.16 0.24 -0.04 c0.04 -0.16 -0.08 -0.2 -0.2 -0.2 c0.04 0.12 -0.08 0.12 -0.04 0.24 z M17.75 19.2 c-0.08 -0.24 0.36 -0.36 0.08 -0.52 c0 0.2 -0.32 0.44 -0.08 0.52 z M18.47 18.76 c0 0.04 -0.04 0 0 0 l0 0 z M17.59 18.88 c0.04 0.04 -0.04 -0.04 0 0 l0 0 z M17.91 19.12 l0.12 0 l0 -0.12 l-0.12 0 l0 0.12 z M21.39 19.32 c0.08 -0.04 0.28 -0.32 0.08 -0.32 c0.04 0.16 -0.16 0.12 -0.08 0.32 z M17.43 19.16 l0.16 0 c0 -0.08 -0.04 -0.12 -0.16 -0.08 l0 0.08 z M21.75 19.16 l0.12 0 l0 -0.08 l-0.12 0 l0 0.08 z M18.23 19.24 c0.12 0.08 0.12 -0.2 0 -0.12 l0 0.12 z M17.19 19.48 l0.2 0 c-0.12 -0.12 0.12 -0.24 -0.08 -0.28 c-0.04 0.12 -0.08 0.2 -0.12 0.28 z M17.79 19.88 c0.12 0 0.16 -0.16 0.24 -0.24 c-0.24 0 0.04 -0.28 -0.16 -0.24 c-0.04 0.16 -0.04 0.36 -0.08 0.48 z M17.63 19.48 c0.04 0.04 0 0 0 0 l0 0 z M18.07 19.6 c0.2 0.04 0 -0.16 0 0 l0 0 z M17.07 20.2 c0.08 -0.16 -0.04 0.2 0.12 0.12 c0.04 -0.28 0.04 -0.36 0 -0.64 c-0.04 0 -0.12 0 -0.12 0.04 c0.16 0.12 -0.2 0.36 0 0.48 z M17.990000000000002 19.84 c0.04 0.2 0.04 -0.2 0 0 l0 0 z M17.35 20.16 c0.04 0.04 -0.04 0 0 0 l0 0 z M17.27 20.56 c0.2 0 0.12 -0.24 0.04 -0.36 c-0.08 0.08 -0.04 0.24 -0.04 0.36 z M18.03 20.4 c0 -0.12 -0.08 -0.16 -0.16 -0.2 c0 0.12 0.08 0.16 0.16 0.2 z M16.83 20.76 c0.16 -0.04 0.12 -0.16 0.28 -0.08 c0 -0.12 0 -0.2 -0.04 -0.28 l-0.16 0 c0.12 0.2 -0.08 0.16 -0.08 0.36 z M20.75 20.64 c0.04 0.04 0 0 0 0 l0 0 z M16.91 21.04 c0 -0.08 0.08 -0.12 0 -0.16 c0 0.08 -0.08 0.12 0 0.16 z M17.35 21.04 l0.08 0 l0 -0.12 l-0.08 0 l0 0.12 z M16.71 21.28 c-0.2 -0.04 0 0.12 0 0 c0.12 0 0.04 0.16 0.2 0.12 c0.08 -0.08 0 -0.36 -0.12 -0.36 c-0.04 0.04 -0.08 0.12 -0.08 0.24 z M17.63 21.24 c-0.12 0.16 0.16 -0.12 0 0 l0 0 z M17.43 21.4 c0 -0.08 -0.04 -0.12 -0.08 -0.12 c0 0.08 0.04 0.12 0.08 0.12 z M16.55 21.52 c-0.04 0.08 0 0.16 0.04 0.2 c0.12 0 0.24 -0.24 0.08 -0.24 c0 0.04 -0.08 0.04 -0.12 0.04 z M17.11 22.04 c0.12 -0.04 0.2 -0.36 0.16 -0.44 c-0.12 0.08 -0.12 0.28 -0.16 0.44 z M20.39 21.84 c0.16 0 0.2 -0.16 0.08 -0.24 c0.04 0.16 -0.12 0.12 -0.08 0.24 z M16.47 21.96 l0.16 0 c0 -0.16 0 -0.24 -0.16 -0.2 l0 0.2 z M16.79 21.96 l0 0.08 c0.12 0.08 0.12 -0.16 0.04 -0.16 c0 0.04 0 0.08 -0.04 0.08 z M20.87 21.88 c-0.08 0.28 0.2 0.04 0 0 l0 0 z M16.63 22.04 c0.04 0.04 -0.04 0 0 0 l0 0 z M19.95 22.12 c0 0 0 -0.04 0.04 -0.04 c0 -0.04 0 -0.12 -0.08 -0.08 c0 0.04 -0.04 0.12 0.04 0.12 z M20.27 22.04 c0.08 0.2 0.08 -0.2 0 0 l0 0 z M16.31 22.76 c0.16 -0.12 0.28 -0.32 0.28 -0.64 c-0.08 0 -0.08 -0.04 -0.16 -0.04 c-0.12 0.16 -0.08 0.48 -0.12 0.68 z M17.35 22.2 c0.04 0 -0.04 -0.04 0 0 l0 0 z M16.91 22.44 c0.16 0.04 0.08 0.04 0.04 0.16 c0.16 -0.04 0.2 -0.16 0.24 -0.32 c-0.08 -0.08 -0.24 0.04 -0.28 0.16 z M16.71 22.32 c0.16 0.16 0.08 -0.16 0 0 l0 0 z M16.67 22.6 c-0.04 0.32 0.04 -0.16 0 0 l0 0 z M16.43 22.8 l0.12 0 l0 -0.08 l-0.12 0 l0 0.08 z M20.55 22.76 c-0.12 0.16 0.16 -0.12 0 0 l0 0 z M19.83 22.8 c0.2 0.04 0.04 -0.12 0 0 l0 0 z M20.03 22.92 c0.12 0 0.16 -0.08 0.2 -0.16 c-0.12 0 -0.2 0 -0.2 0.16 z M20.27 22.84 c0.04 0.04 0 0 0 0 l0 0 z M16.91 23.04 c0.04 -0.04 0.12 -0.16 0 -0.2 c0 0.04 -0.12 0.2 0 0.2 z M16.19 23.04 l0.16 0 c0 -0.08 -0.04 -0.12 -0.16 -0.08 l0 0.08 z M20.67 23 c0.04 0.04 -0.04 0 0 0 l0 0 z M16.35 23.24 c0.08 0.2 0.08 0.16 0 0.32 c0.2 0 0.28 -0.4 0.2 -0.56 c-0.08 0.08 -0.04 0.28 -0.2 0.24 z M19.67 23.2 c0 0.04 -0.04 -0.04 0 0 l0 0 z M16.07 23.76 c0 -0.12 0.28 -0.48 0.04 -0.56 c0.04 0.2 -0.32 0.48 -0.04 0.56 z M20.07 23.24 c0.16 0.16 0.08 -0.16 0 0 l0 0 z M19.75 23.48 l0.16 0 c-0.04 -0.08 0.04 -0.24 -0.12 -0.2 c0 0.08 -0.08 0.12 -0.04 0.2 z M19.59 23.56 c0 -0.08 0.16 -0.2 -0.04 -0.16 c0 0.04 0 0.16 0.04 0.16 z M19.71 23.68 c0.16 0.16 0.08 -0.16 0 0 l0 0 z M16.55 24.36 c0 -0.04 0.04 -0.08 0.08 -0.08 c-0.04 -0.16 0 -0.24 0.04 -0.36 c-0.16 0 -0.28 0.4 -0.12 0.44 z M15.870000000000001 24.2 c0.12 -0.04 0.32 0 0.28 -0.2 c-0.12 0.04 -0.32 0.04 -0.28 0.2 z M16.23 24.04 c-0.16 0.2 0.24 -0.24 0 0 l0 0 z M19.67 24.240000000000002 c0.08 0 0.08 0.08 0.16 0.04 c0.04 -0.16 -0.16 -0.16 -0.16 -0.04 z M15.67 24.52 c0.12 0.16 0.12 0.44 0.24 0.56 c-0.08 -0.32 0.16 -0.56 0 -0.72 c-0.04 0.2 -0.16 0.04 -0.24 0.16 z M16.19 24.4 c0.04 0.04 0 -0.04 0 0 l0 0 z M19.19 24.4 c0 0.04 -0.04 -0.04 0 0 l0 0 z M19.310000000000002 24.48 c0.08 0.2 0.08 -0.2 0 0 l0 0 z M15.71 24.92 c0.08 -0.08 0.08 -0.16 -0.04 -0.2 c0 0.08 0 0.2 0.04 0.2 z M16.07 24.880000000000003 c-0.04 0.28 0 -0.2 0 0 l0 0 z M18.87 25 c0.04 0.04 0 0 0 0 l0 0 z M15.59 25.16 c0 0.2 -0.08 0.32 -0.16 0.44 c0 0.12 0.12 0.16 0.2 0.24 c0.08 -0.12 -0.08 -0.16 -0.04 -0.28 c0.04 0 0.08 0 0.12 0.04 c0.04 -0.12 -0.12 -0.32 0 -0.4 c0 0.08 0 0.16 0.04 0.16 c0.12 -0.12 0.12 -0.24 -0.04 -0.28 c0 0.04 -0.08 0.04 -0.12 0.08 z M19.03 25.2 c-0.12 0.16 0.16 -0.12 0 0 l0 0 z M15.91 25.6 c0.04 0.04 -0.04 -0.04 0 0 l0 0 z M15.83 25.8 c0.04 0.16 0.12 -0.2 0 0 l0 0 z M15.43 26.2 c0.12 0 0.32 -0.16 0.2 -0.28 c-0.04 0.16 -0.12 -0.04 -0.2 0 c-0.08 0.08 -0.08 0.24 0 0.28 z M16.11 26.28 c-0.08 -0.16 0.16 -0.32 -0.04 -0.32 c0 0.12 -0.08 0.28 0.04 0.32 z M18.47 26.439999999999998 c0 0 0.12 -0.16 0 -0.16 c-0.04 0 -0.12 0.16 0 0.16 z M15.030000000000001 27.4 c0.24 -0.04 0.16 -0.32 0.2 -0.48 c0.08 0.04 0.16 0 0.2 -0.04 c-0.04 -0.2 0.16 -0.44 -0.08 -0.48 c-0.16 0.24 -0.24 0.72 -0.32 1 z M15.870000000000001 26.64 c0.12 0.04 0.24 -0.28 0.04 -0.24 c0.04 0.16 -0.08 0.12 -0.04 0.24 z M15.59 26.68 c0.12 0.08 0.2 -0.2 0.08 -0.24 c-0.04 0.08 -0.04 0.2 -0.08 0.24 z M18.47 27 l0 0.08 l0.08 0 c0 -0.04 0 -0.04 0.04 -0.04 l0 -0.12 l-0.08 0 c0 0.04 0 0.08 -0.04 0.08 z M17.75 27.4 c0 0.04 -0.04 0 0 0 l0 0 z M15.15 27.6 c0.12 0.04 0.12 -0.08 0.12 -0.2 c-0.12 0 -0.12 0.12 -0.12 0.2 z M14.91 28.04 c0.16 0.08 0.24 -0.16 0.12 -0.24 c0 0.04 0 0.12 -0.08 0.08 c-0.04 -0.16 0.28 -0.28 0.04 -0.36 c0 0.2 -0.2 0.32 -0.08 0.52 z M15.35 27.560000000000002 c0 0.04 -0.04 0 0 0 l0 0 z M17.75 27.560000000000002 c0 0.04 -0.04 0 0 0 l0 0 z M15.19 28 c0.12 0 0.16 -0.12 0.24 -0.2 c-0.12 0.04 -0.24 0.04 -0.24 0.2 z M15.63 28.04 c0.04 0.04 -0.04 0 0 0 l0 0 z M18.310000000000002 28.04 c0.04 0.04 -0.04 0 0 0 l0 0 z M15.11 28.119999999999997 c0.2 0.08 0 -0.12 0 0 l0 0 z M14.71 28.759999999999998 c0.16 -0.04 0.2 -0.24 0.24 -0.44 c-0.08 0 -0.08 -0.12 -0.2 -0.08 c0 0.2 0 0.4 -0.04 0.52 z M17.87 29 c0 -0.12 0.28 -0.36 0.04 -0.4 c0.08 0.2 -0.2 0.28 -0.04 0.4 z M14.55 29.08 c0.12 0 0.08 0.16 0.2 0.12 c0.08 -0.08 0.08 -0.24 -0.04 -0.24 c0 0.12 -0.16 0.04 -0.16 0.12 z M15.23 29.16 c0.08 0 0.12 -0.04 0.16 -0.12 c-0.08 0 -0.12 0.04 -0.16 0.12 z M16.83 29.2 l0 0.08 l0.08 0 c0.04 -0.04 0.04 -0.12 -0.04 -0.12 c0 0 0 0.04 -0.04 0.04 z M14.51 29.439999999999998 c0.04 0.04 0 -0.04 0 0 l0 0 z M17.59 29.48 c0.04 0.2 0.04 -0.2 0 0 l0 0 z M16.39 31.119999999999997 c0.08 0.04 0.2 -0.12 0.08 -0.16 c0 0.08 -0.12 0.04 -0.08 0.16 z M15.95 31.36 c0.08 0.2 0.08 -0.2 0 0 l0 0 z M16.11 32.2 c0.04 -0.04 0.08 -0.2 -0.04 -0.24 c-0.08 0.08 -0.04 0.2 0.04 0.24 z M31.549999999999997 33.24 c0.04 0 0 -0.04 0 0 l0 0 z M30.509999999999998 34.28 c0.28 -0.08 0.4 -0.32 0.56 -0.52 c-0.24 0.12 -0.44 0.28 -0.56 0.52 z M17.51 34.12 c0.12 0.16 0.08 -0.16 0 0 l0 0 z M17.91 34.36 c0.16 0.08 0.16 -0.2 0 -0.12 l0 0.12 z M30.15 34.44 l0 0.08 l0.12 0 c0.04 -0.08 0.04 -0.12 -0.04 -0.16 c-0.04 0.04 -0.04 0.08 -0.08 0.08 z M29.91 34.76 c0.04 -0.08 0.2 -0.04 0.16 -0.2 c-0.12 0 -0.28 0.16 -0.16 0.2 z M29.35 35.2 c0.08 0.04 0.64 -0.32 0.4 -0.44 c-0.08 0.2 -0.44 0.16 -0.4 0.44 z M16.79 35.32 c0 -0.08 0.28 -0.2 0.08 -0.28 c0 0.08 -0.24 0.2 -0.08 0.28 z M27.189999999999998 36.84 c0.68 -0.52 1.68 -1.12 2 -1.64 c-0.64 0.56 -1.44 0.96 -2 1.64 z M16.31 35.68 c0.08 0.12 0.48 -0.28 0.24 -0.36 c0 0.24 -0.24 0.16 -0.24 0.36 z M15.75 35.76 c0.04 -0.08 0.28 -0.16 0.08 -0.24 c-0.04 0.08 -0.2 0.2 -0.08 0.24 z M16.11 35.96 c0.16 0 0.16 -0.12 0.2 -0.24 l-0.16 0 c0 0.12 -0.08 0.12 -0.04 0.24 z M15.51 35.88 l0 0.08 c0.12 0.08 0.16 -0.16 0.08 -0.16 c-0.04 0.04 -0.04 0.08 -0.08 0.08 z M13.43 36.76 c-0.04 -0.32 0.24 -0.56 0.12 -0.84 c-0.08 0.2 -0.48 0.68 -0.12 0.84 z M15.91 36 c0.16 0.16 0.08 -0.16 0 0 l0 0 z M15.39 36.12 c0.04 0 -0.04 -0.04 0 0 l0 0 z M14.99 36.48 c0.16 -0.04 0.28 -0.16 0.28 -0.32 c-0.16 0.04 -0.2 0.2 -0.28 0.32 z M15.59 36.48 c0.08 -0.04 0.2 -0.12 0.24 -0.28 c-0.16 0.04 -0.28 0.12 -0.24 0.28 z M28.47 36.44 c0.08 -0.04 0.12 -0.12 0.12 -0.24 c-0.24 -0.08 -0.32 0.24 -0.12 0.24 z M28.15 36.64 c0.12 0.08 0.12 -0.24 0 -0.16 l0 0.16 z M15.23 36.88 c0.12 -0.08 0.28 -0.12 0.24 -0.36 c-0.16 0.04 -0.32 0.28 -0.24 0.36 z M14.63 36.84 c0.12 0 0.2 -0.04 0.16 -0.16 c-0.08 0.04 -0.2 0 -0.16 0.16 z M27.75 36.96 c0.16 0 0.48 -0.16 0.24 -0.24 c0 0.16 -0.28 0.04 -0.24 0.24 z M14.19 36.84 c0.04 0 -0.04 -0.04 0 0 l0 0 z M26.43 37.48 c0.24 -0.2 0.52 -0.36 0.72 -0.64 c-0.24 0.04 -0.6 0.32 -0.72 0.64 z M13.19 37.24 c-0.08 0 -0.12 0 -0.16 -0.04 c0 0.16 -0.08 0.28 0.04 0.36 c0.12 -0.24 0.28 -0.52 0.04 -0.72 c-0.12 0.12 0.12 0.2 0.08 0.4 z M14.15 37.56 c0.08 -0.24 0.32 -0.32 0.4 -0.6 c-0.2 0.08 -0.48 0.36 -0.4 0.6 z M14.91 37.2 c0.12 0.08 0.12 -0.2 0 -0.12 l0 0.12 z M14.75 37.32 c0.04 0 0 -0.04 0 0 l0 0 z M26.23 37.64 c0.04 -0.08 0.08 -0.12 0.08 -0.2 c-0.12 0 -0.28 0.16 -0.08 0.2 z M12.99 38.04 c-0.08 -0.2 0.12 -0.36 0 -0.44 c-0.04 0.12 -0.32 0.4 0 0.44 z M25.91 37.84 l0.08 0 l0 -0.12 l-0.08 0 l0 0.12 z M25.71 37.92 c-0.12 0.16 0.16 -0.12 0 0 l0 0 z M12.75 38.36 c0.12 0.08 0.12 -0.2 0 -0.16 l0 0.16 z M12.63 38.76 l0.12 0 l0 -0.12 l-0.12 0 l0 0.12 z M18.95 12.920000000000002 c-0.2 0 0 -0.2 0 0 l0 0 z M18.11 15 l0 0 c0.04 0 0 -0.04 0 0 z M21.75 16.52 l0 0 c-0.04 0.28 0.04 -0.2 0 0 z M21.63 16.76 c0.04 0.04 0.08 0.08 0.08 0.16 c-0.08 0 -0.08 -0.08 -0.08 -0.16 z M21.47 17.32 c0.16 -0.08 -0.12 0.16 0 0 l0 0 z M16.11 21.64 l0 0 c0.04 0.04 -0.04 0 0 0 z M15.83 22.72 c0.08 -0.04 0.04 0.2 -0.08 0.12 l0 -0.08 c0.04 0 0.04 0 0.08 -0.04 z M15.71 23.04 c0.08 0 0.08 0.28 -0.04 0.2 c0 -0.08 0.04 -0.08 0.04 -0.2 z M14.07 29.560000000000002 l0 0 c0.04 0.04 0 0 0 0 z M17.35 30.04 c0.12 -0.16 0.08 0.16 0 0 l0 0 z M29.67 35.480000000000004 c0.2 -0.04 0.08 0.16 0.08 0.2 c-0.08 -0.04 -0.04 -0.12 -0.08 -0.2 z M29.630000000000003 35.68 c-0.04 0.12 -0.16 0.16 -0.28 0.24 c0.04 -0.16 0.12 -0.24 0.28 -0.24 z M28.79 36.6 l0 0 c-0.2 0.16 0.16 -0.2 0 0 z M37.18 31.32 c-0.12 0.68 0 1.12 -0.64 1.48 c-0.48 1.2 -1.64 1.76 -2.52 2.56 c-0.76 0.16 -1.68 0.68 -2.4 0.16 c-0.44 0.6 -0.48 1.32 -0.68 2.2 c1.64 1.16 4.04 -0.36 5.72 -0.88 c0.92 -0.52 1.92 -1.04 2.96 -1.48 c0.12 -0.16 0.36 -0.2 0.48 -0.32 c0.12 0.36 -0.72 0.56 -1 0.84 c0 0.08 0.08 0.04 0.16 0.04 c-1.12 1 -2.36 1.6 -3.84 2.12 c0.28 0 0.88 0 1.24 -0.2 c-0.04 0.2 -0.2 0.24 -0.36 0.32 c0 0.08 0.24 -0.04 0.16 0.12 c-0.48 0.16 -0.92 0.64 -1.16 0.48 c-0.2 0.08 -0.04 0.16 -0.12 0.28 c-1.08 0.48 -1.8 0.8 -3.2 0.8 c-1.92 -0.4 -2.16 -2.28 -1.92 -4 c0.72 -2.2 2.28 -4.64 4.48 -5.72 c0.4 -0.2 0.88 -0.12 1.28 -0.12 c0.32 0.04 0.4 0.28 0.68 0.32 c0.08 0.48 0.4 0.72 0.68 1 z M34.059999999999995 32.04 c0.16 0.04 0.28 -0.28 0.4 -0.12 c-0.68 0.52 -1.28 1.08 -1.8 1.76 c1.32 -0.68 2.52 -1.48 3.28 -2.68 c-0.68 0.28 -1.48 0.48 -1.88 1.04 z M33.82 32.2 c0.04 0.04 0 -0.04 0 0 l0 0 z M33.5 38.4 c0.12 0.04 0.28 -0.08 0.24 0.24 c0.2 -0.12 0.32 -0.2 0.52 0 c0.08 -0.08 -0.08 -0.24 0.08 -0.24 c0.28 0 0.76 -0.2 1 -0.36 c-0.6 0.32 -1.36 0.12 -1.84 0.36 z M40.26 34.96 l0 0 c0.08 0 0 -0.04 0 0 z M40.26 34.96 c0 0.08 -0.08 0.04 0 0 l0 0 z M36.54 38.08 c0.08 -0.16 0.08 0.2 0 0 l0 0 z M50.81 31.6 c-0.16 -0.12 -0.36 -0.24 -0.56 -0.32 c-1.28 0.52 -2.16 1.64 -3.28 2.08 c-0.08 0.36 -0.24 0.64 -0.56 0.72 c-1.2 1.68 -2.4 3.32 -3.36 5.2 c-0.12 0.92 -0.56 1.48 -1.32 1.76 c-2 -0.92 -0.84 -4.08 -0.64 -5.88 c0.4 -0.92 0.44 -2.32 0.88 -3.04 c1.76 0.4 1.04 2.28 0.84 3.56 c0.92 -1.4 2.08 -2.56 3.24 -3.76 c1.08 -0.92 3.8 -2.2 4.76 -0.32 z M47.85 31.32 c0.28 0.04 0.28 -0.2 0.48 -0.12 c-0.12 -0.28 0.32 -0.04 0.36 -0.32 c-0.28 0.08 -0.52 0.12 -0.64 0.08 c-2.2 1.28 -3.96 3.36 -5.16 5.6 c1.4 -2 2.92 -3.88 4.96 -5.24 z M48.81 30.92 c0.04 0.04 -0.04 0 0 0 l0 0 z M49.010000000000005 31.28 c0 0.08 -0.04 0.12 -0.08 0.16 c0.16 -0.04 0.36 -0.04 0.4 -0.24 c-0.12 0.04 -0.2 0.08 -0.32 0.08 z M48.61 31.64 c0.16 0 0.2 -0.12 0.28 -0.2 c-0.16 -0.08 -0.4 0 -0.28 0.2 z M47.49 32.24 c0.36 -0.04 0.6 -0.48 0.92 -0.48 c-0.04 -0.12 0.16 -0.28 -0.04 -0.24 c-0.24 0.28 -0.64 0.44 -0.88 0.72 z M48.050000000000004 32.08 c-0.12 0.16 0.16 -0.12 0 0 l0 0 z M47.17 32.56 c0.12 -0.08 0.28 -0.12 0.32 -0.28 c-0.12 0.08 -0.44 0.12 -0.32 0.28 z M46.650000000000006 33.24 c0.08 -0.16 0.32 -0.2 0.32 -0.44 l-0.12 0 c0.04 0.24 -0.36 0.28 -0.2 0.44 z M46.25 33.56 c0 0 0 -0.04 0.04 -0.04 c0 -0.04 0 -0.12 -0.08 -0.08 c0 0.04 0 0.12 0.04 0.12 z M47.85 31.32 c-0.04 0 -0.08 -0.04 0 -0.04 l0 0.04 z M46.45 32.16 l0 0 c0.04 0.04 -0.04 0 0 0 z M40.85 33.24 c0 -0.16 0.2 0.04 0 0 l0 0 z M56.24 36.24 c0.04 0 0.04 -0.04 0.04 -0.04 c-0.04 -0.08 -0.04 0 -0.04 0.04 c-0.16 0.12 -0.48 0.2 -0.44 0.36 c-0.16 0.2 -0.4 0.2 -0.64 0.36 c-1.64 1.04 -3.72 4.48 -6.04 3.56 c-0.08 -0.28 -0.24 -0.48 -0.32 -0.72 c0 -0.2 -0.16 0.08 -0.16 -0.08 c-0.12 -0.2 -0.2 -0.4 -0.32 -0.6 c0.56 -2.8 2.08 -4.64 3.56 -6.6 c0.56 -0.44 1.24 -0.96 2.16 -0.96 c0.88 0.2 1.92 0.48 2.08 1.56 c0.08 0.6 -0.16 1 -0.4 1.4 c0.32 0 0.68 -0.32 1.2 -0.24 c0.72 0.28 0.84 1.76 0.32 2.28 c0.36 0.6 -0.36 1.48 -0.08 2.16 c4 -0.64 6.24 -3.48 8.68 -5.84 c-0.28 2.12 -2.44 3.2 -3.84 4.64 c-0.92 0.52 -1.6 1 -2.6 1.44 c0.08 0.12 0.24 -0.12 0.4 -0.08 c-0.04 0.12 -0.2 0.08 -0.2 0.2 c1.64 -0.56 2.68 -1.92 4.08 -2.56 c-0.04 -0.12 -0.16 0.04 -0.24 0 c0.08 -0.12 0.2 -0.36 0.28 -0.08 c0.12 -0.28 0.56 -0.76 1.12 -0.88 c-1.72 2.08 -3.92 3.48 -6.56 4.72 c-0.36 0.04 -0.64 -0.08 -1 -0.08 c-0.6 -0.2 -0.8 -0.52 -1.08 -1.04 c-0.04 -0.8 -0.08 -2.04 0.04 -2.92 z M49.88 39 c2.04 -1 3.32 -2.68 4.96 -4.08 c-0.32 -0.28 -0.12 -1.24 -0.2 -1.6 c-2.64 0.84 -3.6 3.36 -4.76 5.68 z M65.36 33.8 c0.04 0.16 0.12 -0.2 0 0 l0 0 z M65.12 34.08 c0.08 0.08 0.16 -0.04 0.2 -0.16 c-0.12 0.04 -0.24 0.04 -0.2 0.16 z M60.28 37.88 c-0.04 -0.08 -0.12 -0.08 -0.12 0 c-0.12 -0.04 -0.16 0.04 -0.2 0.12 c0.12 0 0.16 -0.08 0.2 -0.12 l0.12 0 c-0.08 0.16 -0.28 0.2 -0.44 0.28 c0 -0.08 0.2 -0.16 0 -0.16 c-0.08 0.16 -0.16 0.4 -0.4 0.2 c-0.04 0.12 -0.16 0.32 0 0.32 c2.16 -1.12 4.24 -2.6 5.64 -4.4 c-1.56 1.32 -3 2.72 -4.8 3.76 z M55.56 35.16 c-0.16 0.24 0.28 0.08 0 0 l0 0 z M55.24 35.480000000000004 c0.04 0.08 0.32 -0.08 0.16 -0.16 c0 0.12 -0.2 0 -0.16 0.16 z M55.00000000000001 35.72 c-0.12 -0.04 -0.2 0.16 -0.12 0.16 c0 -0.08 0.12 -0.04 0.12 -0.16 c0.04 0 0.04 0.04 0.08 0.04 c0.04 -0.04 0.04 -0.08 0.04 -0.16 c-0.08 0 -0.12 0.04 -0.12 0.12 z M55.24 35.84 c0 0.04 -0.04 0 0 0 l0 0 z M54.080000000000005 36.48 c-0.12 0.16 0.16 -0.12 0 0 l0 0 z M53.92 36.6 c0.04 0.04 0 0 0 0 l0 0 z M55.56 36.6 c0.24 0.08 0.04 -0.12 0 0 l0 0 z M55.36000000000001 36.76 c0.2 0.04 0 -0.16 0 0 l0 0 z M59.64 38.2 c0.04 0.04 -0.04 0 0 0 l0 0 z M49.6 38.28 c0.2 0.08 0 -0.12 0 0 l0 0 z M49.56 38.52 c-0.08 0.12 -0.28 0.36 -0.2 0.44 c0.08 -0.12 0.2 -0.2 0.2 -0.44 c0.08 0 0 -0.04 0 0 z M59.080000000000005 39.16 c0.08 -0.04 0.24 -0.04 0.28 -0.16 c-0.16 0 -0.32 0 -0.28 0.16 z M49.32000000000001 39.12 c-0.12 0.16 0.16 -0.12 0 0 l0 0 z M59.160000000000004 39.32 c0.16 -0.08 0.36 -0.08 0.4 -0.24 c-0.16 0.04 -0.32 0.08 -0.4 0.24 z M49.32000000000001 39.32 c0.08 -0.16 -0.2 -0.16 -0.2 -0.08 c0.08 0 0.12 0.08 0.2 0.08 z M65.16 34.92 c0.12 0.08 -0.04 0.24 -0.16 0.2 c0.04 -0.08 0.16 -0.08 0.16 -0.2 z M65.08000000000001 35.28 c0.04 0.16 -0.28 0.24 -0.24 0.04 c0.08 0.04 0.08 -0.08 0.24 -0.04 z M64.60000000000001 35.36 c0.04 -0.16 0.04 0.2 0 0 l0 0 z M60.120000000000005 38.72 c0 0.12 -0.16 0.08 -0.16 0.16 c-0.12 -0.04 0.08 -0.16 0.16 -0.16 z M66.63 37.4 c-0.04 0.68 0.68 1.44 0.24 2.16 c-0.52 0.32 -0.84 0.08 -1.08 -0.28 c-0.28 -0.32 -0.36 -0.2 -0.4 -0.6 c-0.04 -0.84 0.56 -1.28 1.24 -1.28 z M72.42 40.16 c0 -0.12 0.08 -0.08 0 -0.2 c0.04 0 0.04 -0.04 0.04 -0.08 c-0.04 0 -0.04 0.04 -0.04 0.08 c-0.08 -0.04 -0.08 0.24 0 0.2 c0.08 0.44 -0.32 1 -0.48 1.52 c-1.12 3.68 -2.48 7.52 -3.08 11 c-0.16 1.08 -0.08 2.04 -0.56 3.28 c0.4 0.08 -0.2 0.6 0.08 0.72 c0 0.16 -0.16 0.16 -0.2 0.28 c0.04 0.28 0.04 1.68 -0.28 2.16 c0.12 1.32 -0.48 2.32 -0.32 3.68 c-0.36 0.24 -0.6 -0.04 -0.88 -0.08 c0 -0.16 -0.04 -0.32 -0.08 -0.44 c-0.16 0 0.08 0.36 -0.16 0.28 c0 -0.08 -0.04 -0.2 0 -0.28 c-0.52 -0.4 -0.88 -1.36 -0.8 -2.04 c0.04 -4.76 1.92 -8.04 2.16 -12.32 c0.36 -1.84 0.6 -3.4 0.68 -5.32 c0.56 -2.6 0.44 -5.56 0.96 -7.72 c-0.08 -1.16 0.16 -2.04 0 -3.08 c0.92 -0.32 1.88 0.52 1.8 1.48 c-0.12 1.84 -0.36 3.68 -0.52 5.52 c-0.16 0.04 0 0.2 -0.2 0.24 c0.08 0.6 0.04 1.16 -0.12 1.84 c1.28 -3.16 2.48 -6.4 4.56 -8.8 c-1.52 2.2 -2.8 4.64 -3.76 7.2 c-0.04 0.16 0.16 0.04 0.08 0.2 c-0.28 -0.08 -0.48 0.56 -0.32 0.84 c-0.44 0.28 -0.76 1.56 -0.72 2.28 c0.84 -2.56 2.16 -5.48 3.28 -7.92 l0.12 0.12 c0 -0.36 0.52 -0.68 0.36 -0.88 c0.16 -0.08 0.36 -0.28 0.4 -0.56 c0.72 -1.08 1.56 -1.96 2.32 -2.96 c0.68 -0.68 1.8 -1.04 2.6 -0.32 c0 0.08 -0.04 0.12 -0.12 0.08 c0.36 0.12 0.64 0.32 0.88 0.56 c-0.2 0.24 0.16 0.32 0.24 0.48 c0.56 1.04 -0.08 3.4 -0.72 4.44 c-0.08 0.16 -0.32 0.24 -0.44 0.4 c-0.4 0.6 -0.48 1.16 -0.96 1.56 c-0.56 0.56 -1.08 1.12 -1.8 1.44 c-0.2 0.08 -0.36 -0.12 -0.4 0.08 c-0.84 -0.56 -1.8 -2.04 -0.72 -2.88 c-0.08 0.28 -0.08 0.4 -0.2 0.72 c0 0.32 0.44 0.08 0.28 0.48 c2.04 -1.4 4.24 -4.28 3.36 -6.8 c-0.28 0.04 -0.48 0.44 -0.76 0.36 c-2.56 2.56 -3.96 5.68 -5.52 9.16 l-0.04 0 z M77.69999999999999 30.119999999999997 c-0.16 0 -0.2 0.12 -0.28 0.16 c0.16 0 0.24 -0.04 0.28 -0.16 c0.12 0.04 0.32 -0.08 0.2 -0.12 c-0.04 0.08 -0.2 0 -0.2 0.12 z M77.17999999999999 30.52 c0.08 0.04 0.2 -0.12 0.08 -0.16 c0 0.08 -0.08 0.08 -0.08 0.16 z M76.1 31.72 c-0.12 0.04 -0.28 0.12 -0.32 0.28 l-0.04 0 c-0.04 0.12 -0.16 0.16 -0.16 0.28 l-0.04 0 c-0.88 1.2 -1.72 2.52 -2.36 4.04 c-0.04 0 -0.04 0.04 -0.04 0.04 c-0.08 0.04 0 0.08 0 0 c0.04 0 0.04 0 0.04 -0.04 c0.2 -0.08 0.2 -0.32 0.36 -0.44 l0 0.04 c0.16 0.04 0.24 -0.04 0.28 -0.16 c-0.16 0 -0.16 0.12 -0.28 0.12 c0.44 -1.2 1.48 -2.48 2.04 -3.6 c0.04 -0.04 0.12 -0.04 0.2 -0.04 l0 -0.24 c0.16 -0.04 0.24 -0.16 0.32 -0.28 c0.28 -0.28 0.8 -0.76 0.92 -1.16 c-0.32 0.36 -0.72 0.64 -0.92 1.16 z M76.74 31.439999999999998 c0 -0.08 0.08 -0.12 0 -0.16 c0 0.04 -0.08 0.12 0 0.16 z M76.25999999999999 32.04 c0.12 0 0.24 0 0.28 -0.04 c0 -0.08 -0.04 -0.12 -0.08 -0.16 c-0.04 0.12 -0.24 0.04 -0.2 0.2 z M76.02 32.68 c0 -0.08 0.08 -0.12 0 -0.16 c0 0.08 -0.08 0.12 0 0.16 z M79.38 32.64 c0.04 0 0 -0.04 0 0 l0 0 z M75.53999999999999 32.88 c0.16 0.04 0.16 -0.08 0.2 -0.16 c-0.08 0 -0.08 -0.04 -0.16 -0.04 c0 0.08 -0.04 0.12 -0.04 0.2 z M75.5 33.16 c0.04 0.2 0.04 -0.2 0 0 l0 0 z M79.38 33.4 c-0.04 0.12 -0.12 0.36 0.08 0.32 c-0.04 -0.12 0.08 -0.12 0.08 -0.24 c-0.12 0.04 -0.08 -0.08 -0.16 -0.08 c0.04 -0.04 0.08 -0.12 0 -0.16 c-0.04 0.04 -0.08 0.16 0 0.16 z M79.3 33.96 c-0.12 0.16 0.16 -0.12 0 0 l0 0 z M74.78 34 c0.04 0.04 -0.04 0 0 0 l0 0 z M78.5 34.56 c-0.84 1.24 -1.56 2.6 -2.72 3.52 c1.44 -0.84 2 -2 2.72 -3.52 c0.16 -0.04 0.32 -0.36 0.16 -0.4 c0 0.16 -0.12 0.16 -0.16 0.4 z M74.42 34.6 c0.08 0.2 0.08 -0.2 0 0 l0 0 z M73.89999999999999 35.44 c0.16 0.08 0.16 -0.2 0 -0.12 l0 0.12 z M72.94 36.76 c-0.24 0.32 -0.44 0.92 -0.52 1.24 c0 -0.08 0.2 0 0.24 -0.08 c-0.04 -0.44 0.24 -0.68 0.4 -0.96 c0.04 -0.16 -0.16 -0.04 -0.12 -0.2 l0.28 0 c0 -0.12 -0.12 -0.16 -0.24 -0.2 c-0.04 0.04 -0.04 0.12 -0.04 0.2 z M73.3 36.64 c0.08 0.04 0.12 0 0.12 -0.08 c-0.08 0 -0.16 0 -0.12 0.08 z M72.94 37.44 c-0.08 0.2 0.12 -0.24 0 0 l0 0 z M72.25999999999999 38.32 c0.04 -0.04 0.16 -0.24 0.08 -0.28 c-0.04 0.08 -0.16 0.24 -0.08 0.28 z M72.61999999999999 38.52 c0.08 0 0.12 -0.04 0.12 -0.08 c-0.08 0 -0.12 0.04 -0.12 0.08 z M71.78 39.72 c0.12 0 0.12 -0.12 0.16 -0.2 c-0.08 0.04 -0.08 0 -0.08 -0.08 c0.04 -0.04 0.04 -0.16 0.12 -0.24 c0.12 0.04 0.16 0.2 0.24 0.24 c0 -0.08 0.16 -0.04 0.16 -0.16 c-0.08 -0.08 -0.2 0.08 -0.2 -0.04 l0 -0.08 c0.16 0 -0.04 -0.2 0 0 c-0.24 -0.12 -0.04 -0.32 -0.04 -0.44 c-0.36 0.32 -0.32 0.68 -0.52 1.16 c0.08 0 0.08 0.04 0.16 0.04 l0 -0.2 z M72.34 38.96 c0.04 0.2 0.04 -0.2 0 0 l0 0 z M71.53999999999999 40.32 c0.04 -0.16 0.2 -0.12 0.16 -0.32 l-0.16 0 c-0.04 0.04 -0.08 0.28 0 0.32 z M71.46 40.84 c-0.04 -0.16 -0.04 -0.12 0.04 -0.24 c-0.08 0 -0.08 -0.08 -0.12 -0.12 c-0.08 0.08 -0.16 0.44 0.08 0.36 z M71.14 41.44 c-0.04 -0.08 0.12 -0.2 0 -0.24 c0 0.12 -0.16 0.2 0 0.24 z M70.94 41.76 c0.2 0.04 0 -0.16 0 0 l0 0 z M70.58 42.76 c0.12 0.08 0.2 -0.08 0.24 -0.16 c-0.16 -0.04 0 -0.16 -0.08 -0.24 c0.28 -0.04 0.16 -0.24 0.4 -0.36 c-0.48 -0.12 -0.4 0.48 -0.56 0.76 z M71.02 42.52 c0.04 0.04 0 -0.04 0 0 l0 0 z M70.53999999999999 43.32 c-0.28 0.04 -0.36 0.52 -0.32 0.84 c0 -0.2 0.08 -0.16 0.12 -0.08 c0 -0.12 0.16 -0.08 0.12 -0.24 c-0.08 0 -0.12 -0.04 -0.16 -0.08 c0.16 -0.04 0.16 -0.16 0.12 -0.28 c0.04 -0.04 0.12 -0.08 0.16 -0.12 c0.04 -0.12 0 -0.28 -0.08 -0.32 c-0.04 0.12 -0.04 0.16 0.04 0.28 z M70.58 43.8 c0.04 0.04 0 0 0 0 l0 0 z M70.1 44.32 c0.12 0.2 0.08 -0.16 0 0 l0 0 z M70.1 44.68 c-0.08 -0.12 0.08 -0.16 -0.04 -0.24 c-0.04 0.04 -0.08 0.24 0.04 0.24 z M70.3 44.96 c-0.04 -0.08 0.16 -0.16 0 -0.2 c-0.04 0.08 -0.16 0.16 0 0.2 z M70.17999999999999 45.2 c0.12 0.2 0.04 -0.16 0 0 l0 0 z M70.06 45.44 c0.04 0.04 0 0 0 0 l0 0 z M70.02 46 c-0.08 -0.16 0.24 -0.44 0 -0.48 c0 0.16 -0.16 0.48 0 0.48 z M68.86 46.480000000000004 c0.12 0.08 0.24 -0.12 0.12 -0.12 c-0.04 0.08 -0.08 0.08 -0.12 0.12 z M68.97999999999999 46.8 c0 -0.08 -0.04 -0.12 -0.12 -0.16 c-0.04 0.08 -0.08 0.2 0.12 0.16 z M69.61999999999999 46.88 c0.2 0.04 0.04 -0.16 0 0 l0 0 z M68.78 47.44 c-0.08 -0.08 0.28 -0.44 0.04 -0.56 c-0.04 0.16 -0.16 0.52 -0.04 0.56 z M69.82 47.08 c0.04 0.04 0 -0.04 0 0 l0 0 z M68.66 47.76 c0.04 0 0 -0.04 0 0 l0 0 z M68.38 50.28 c0.04 0.04 0 0 0 0 l0 0 z M68.3 50.519999999999996 c0.12 0.2 0.08 -0.16 0 0 l0 0 z M68.17999999999999 50.96 c0.2 0.04 0.04 -0.16 0 0 l0 0 z M68.17999999999999 51.4 c-0.04 -0.16 0.2 -0.28 -0.04 -0.28 c0.04 0.08 -0.04 0.28 0.04 0.28 z M66.97999999999999 53.6 c0 -0.04 0.04 -0.04 0.08 -0.04 c-0.04 -0.08 -0.04 -0.12 -0.12 -0.12 c0 0.08 0 0.16 0.04 0.16 z M66.94 53.8 c0.12 0.2 0.08 -0.16 0 0 l0 0 z M66.86 54.6 c-0.2 0 -0.28 0.48 -0.12 0.6 c0.08 -0.28 0.16 -0.4 0.12 -0.6 c0.12 -0.16 0.08 -0.4 0.12 -0.68 c-0.12 0.16 -0.16 0.52 -0.12 0.68 z M66.66 55.6 c-0.16 0.08 -0.2 0.28 -0.04 0.36 c-0.04 -0.2 0.16 -0.16 0.04 -0.36 c0.08 0 0.16 -0.24 0 -0.28 c0 0.2 -0.08 0 -0.16 0 c0 0.16 0.12 0.2 0.16 0.28 z M67.78 57.04 c0.2 0.08 0 -0.12 0 0 l0 0 z M66.25999999999999 57.519999999999996 c0.04 0.04 0 0 0 0 l0 0 z M66.22 57.72 c-0.12 0 0.04 0.2 0 0 c0.08 0 0 -0.04 0 0 z M65.7 59.6 c0.16 0.16 0.08 -0.16 0 0 l0 0 z M67.61999999999999 60.4 c0.04 0.04 0 0 0 0 l0 0 z M77.46 29.64 c0.04 0.04 0.08 0.08 0.08 0.16 c-0.08 0 -0.08 -0.04 -0.12 -0.04 c0 -0.04 0.04 -0.08 0.04 -0.12 z M77.22 29.84 c-0.24 0.16 -0.56 0.52 -0.76 0.52 c0.24 -0.28 0.36 -0.4 0.76 -0.52 z M76.74 30.4 c-0.16 0.16 -0.08 -0.16 0 0 l0 0 z M76.3 30.52 c0 -0.16 0.2 0.04 0 0 l0 0 z M76.3 30.52 c-0.12 0.32 -0.36 0.48 -0.56 0.68 c0.12 -0.32 0.28 -0.56 0.56 -0.68 z M75.02 32.04 c0.16 -0.36 0.4 -0.6 0.68 -0.84 c-0.2 0.32 -0.4 0.64 -0.68 0.84 z M74.97999999999999 32.08 c0 0 0 -0.04 0.04 -0.04 c0 0.04 0 0.08 -0.04 0.04 z M74.42 33.36 l0 0 c0 -0.08 -0.04 0 0 0 z M72.89999999999999 35.76 c0.04 -0.2 0.04 0.16 0 0 l0 0 z M72.46 36.76 l0 0 c0.04 0.04 0 -0.04 0 0 z M77.94 37.96 l0 0 c0.04 0.04 0 -0.04 0 0 z M71.46 38.92 c0 -0.16 0.2 0.04 0 0 l0 0 z M71.78 39.72 l0 0 c0 -0.04 -0.04 0 0 0 z M67.61999999999999 61.480000000000004 c0 -0.16 0.2 0.04 0 0 l0 0 z M89.89 38.96 c2.48 -2.08 4.92 -4.16 7.44 -6.16 c0.48 0.08 0.96 0.24 1.04 0.8 c-2.68 2.84 -5.92 5.12 -8.72 7.84 c0 1.32 -0.16 2.4 -0.16 3.64 c-0.68 5.76 -1.48 11.28 -3.36 16.12 c-0.4 1.84 -1.2 3.52 -2.04 4.88 c-1.48 2.56 -3.28 5.32 -7.16 5.2 c-0.28 -0.12 -0.68 -0.28 -0.96 -0.32 c-0.04 -0.08 -0.12 -0.12 -0.08 -0.28 c-1.64 -0.6 -2.28 -2.52 -2.84 -4.28 c-0.44 -2.84 0.68 -5.16 1.6 -7.36 c1.08 -2.56 2.32 -5.08 3.92 -7.08 c2.32 -3.92 5.4 -7.04 8.28 -10.36 c0.6 -0.4 1.04 -0.96 1.52 -1.44 c0.12 -2.04 0.2 -4.16 0.4 -6.16 c-1.8 1.4 -3.28 3.52 -5.52 4.6 c-3.28 -0.48 -1.04 -4.52 -0.56 -6.44 c2.16 0.6 0.52 3.36 0.16 4.68 c2.28 -1.36 4.24 -3.36 6.16 -5.24 c0.48 -0.36 1.04 -0.08 1.24 0.4 c0.04 2.08 -0.4 4.76 -0.36 6.96 z M96.69 33.76 c0.16 -0.12 0.6 -0.4 0.48 -0.52 c-0.16 0.2 -0.44 0.24 -0.48 0.52 z M97.45 33.84 c-0.04 -0.16 0.16 -0.08 0.12 -0.24 c-0.16 -0.12 -0.16 0.08 -0.28 0.16 c-2.48 1.92 -5 4.16 -7.48 6.24 c0 0.24 0 0.48 -0.04 0.68 c0.52 -0.36 1 -0.68 1.32 -1.2 c0.44 -0.12 0.88 -0.6 1.12 -1.08 c0.76 0.12 1.04 -1.28 1.84 -1.28 c0.96 -1.32 2.84 -2.4 3.88 -3.6 c-0.04 0.08 -0.08 0 -0.16 0 c-0.04 0.16 -0.12 0.28 -0.32 0.32 z M95.97 34.4 c0.16 -0.24 0.6 -0.4 0.56 -0.64 c-0.12 0.28 -0.56 0.24 -0.56 0.64 z M95.61 34.68 c0.08 0.16 0.12 -0.2 0 0 l0 0 z M95.00999999999999 35.36 c0.04 -0.12 0.28 -0.28 0.08 -0.36 c-0.04 0.08 -0.24 0.24 -0.08 0.36 z M95.25 35.04 c0 0.04 -0.04 0 0 0 l0 0 z M94.33 35.88 c0.12 -0.2 0.4 -0.24 0.48 -0.44 c-0.24 0.08 -0.44 0.16 -0.48 0.44 z M94.13 35.96 c0.16 0.08 0.16 -0.2 0 -0.12 l0 0.12 z M93.21 36.68 c0.28 -0.16 0.8 -0.36 0.76 -0.68 c-0.24 0.24 -0.52 0.44 -0.76 0.68 z M93.21 36.84 c-0.76 0.08 -1.48 1.36 -2.28 1.56 c-0.12 0.64 -1.08 0.68 -1.04 1.32 c0.48 -0.2 0.64 -0.92 1.12 -0.92 c0.04 -0.2 0.12 -0.4 0.32 -0.24 c0.52 -0.72 1.24 -1.16 1.88 -1.72 z M87.73 41.24 c0.12 0.32 -0.28 0.36 -0.32 0.64 c-0.12 0.04 -0.12 -0.08 -0.24 -0.04 c-0.32 0.28 -0.6 0.6 -0.96 0.88 c0.32 0.04 0.64 -0.36 0.88 -0.6 c0.04 0.04 0 0.16 0.12 0.12 c0.48 -0.16 0.6 -1.04 0.92 -0.96 c0.08 -0.08 0.28 -0.32 0.16 -0.48 c-0.2 0.16 -0.36 0.32 -0.56 0.44 z M80.05 51.8 c0 0.24 -0.16 0.24 -0.16 0.48 c-0.12 0.04 -0.36 0.24 -0.16 0.28 c0.04 -0.08 0.16 -0.12 0.16 -0.28 c0.24 -0.2 0.48 -0.44 0.56 -0.8 c-0.24 0 -0.2 0.28 -0.4 0.32 c0.2 -0.36 0.44 -0.68 0.68 -0.96 c0 0.24 -0.2 0.28 -0.24 0.48 c1.16 -1.12 1.88 -2.6 3.04 -3.68 c-0.16 -0.24 0.16 -0.24 0.04 -0.4 c-0.2 0.24 -0.4 0.52 -0.64 0.72 c0.48 -0.72 1 -1.4 1.6 -2 c0 0.12 -0.12 0.12 -0.08 0.28 c0.16 -0.04 0.4 -0.28 0.32 -0.44 c-0.04 0.08 -0.08 0.16 -0.24 0.16 c0.44 -0.6 1 -1.28 1.48 -1.64 c-0.04 0.2 -0.24 0.24 -0.28 0.44 c0.28 -0.12 0.36 -0.44 0.64 -0.4 c-0.36 -0.16 0.68 -0.72 0.28 -0.8 c0.2 -0.12 0.24 -0.36 0.48 -0.44 c-0.04 0.08 -0.16 0.08 -0.12 0.24 c0.4 -0.24 0.72 -0.52 0.92 -0.96 c-0.32 0.08 -0.4 0.6 -0.68 0.56 c0.16 -0.64 1.28 -0.84 0.92 -1.48 c-0.16 0.28 -0.6 0.48 -0.6 0.76 c-0.44 0.28 -1.16 0.92 -1.32 1.44 c-4.28 4.32 -7.64 9.32 -10.52 15 c-0.28 1 -0.56 1.4 -0.8 2.24 c1 -1.92 2 -4.2 3.16 -6.08 l0 0.2 c0.64 -0.68 0.92 -1.36 1.4 -2.16 c-0.44 0.2 -0.44 0.88 -0.88 1.08 c0.4 -0.72 0.88 -1.52 1.44 -2.16 z M87.45 41.72 c0 -0.08 0.08 -0.24 -0.08 -0.2 c0 0.12 0 0.2 0.08 0.2 z M87.00999999999999 42.36 c0.04 0.04 0 -0.04 0 0 l0 0 z M86.53 42.88 c0.24 -0.08 0.36 -0.24 0.44 -0.44 c-0.2 0.08 -0.28 0.28 -0.44 0.44 z M81.92999999999999 50.08 c0 0.16 -0.08 0.2 -0.08 0.4 c-1.56 1.68 -2.68 3.88 -3.96 5.76 c-1.4 3.28 -3.12 5.92 -3.4 10.24 c-0.2 0.08 -0.04 0.6 -0.24 0.84 c-0.08 -0.08 0.08 -0.44 -0.12 -0.44 c-0.12 0.6 0.12 1.16 0.28 1.68 c0.8 1.2 2.84 1.6 4.36 0.8 c3.96 -2.24 5.32 -6.72 6.88 -11.2 c1 -4.44 2.28 -9.56 2.52 -15.28 c0 -0.04 0 -0.04 -0.04 -0.04 c-2.12 2.32 -4.16 4.8 -6.2 7.24 z M85.69 43.4 c0.2 0 0.56 -0.32 0.32 -0.44 c-0.08 0.2 -0.32 0.2 -0.32 0.44 z M86.21 43.04 c0.04 0 0 -0.04 0 0 l0 0 z M86.13 43.44 c-0.08 -0.12 0.2 -0.16 0.04 -0.24 c0 0.08 -0.2 0.2 -0.04 0.24 z M86.89 43.6 c0 -0.08 0.2 -0.16 0.04 -0.2 c0 0.08 -0.2 0.16 -0.04 0.2 z M85.17 44 c0.2 0 0.12 -0.32 0.4 -0.2 c0.04 -0.12 0.2 -0.24 0 -0.28 c-0.04 0.2 -0.4 0.16 -0.4 0.48 z M85.81 43.6 c0.04 0.04 0 -0.04 0 0 l0 0 z M85.73 43.76 c0.2 0.04 0 -0.16 0 0 l0 0 z M86.73 43.88 c0.2 0.04 0.04 -0.12 0 0 l0 0 z M84.97 44.16 c0.16 0 0.2 0.12 0.24 -0.04 c-0.08 -0.08 -0.2 -0.04 -0.24 0.04 z M85.33 44.16 c0.12 0 0.16 -0.04 0.16 -0.08 c-0.08 0 -0.12 0.04 -0.16 0.08 z M85.21 44.28 l0 0.08 c0.12 0.08 0.12 -0.16 0.04 -0.12 c0 0 0 0.04 -0.04 0.04 z M84.61 44.519999999999996 c0.16 0 0.32 -0.04 0.32 -0.2 c-0.16 0.04 -0.24 0.08 -0.32 0.2 z M85.05 44.519999999999996 c-0.12 0.16 0.16 -0.12 0 0 l0 0 z M84.45 44.8 l-0.08 0 c-0.04 0.04 -0.04 0.24 0.08 0.24 l0 -0.24 c0.12 0 0.24 0 0.24 -0.08 c-0.12 -0.12 -0.24 -0.04 -0.24 0.08 z M84.85 44.72 c-0.04 0.28 0.04 -0.2 0 0 l0 0 z M85.69 45 l0 0.04 c0.12 0.04 0.2 -0.12 0.04 -0.08 l0 -0.16 c-0.12 0.08 -0.28 0.12 -0.28 0.32 c0.16 0.08 0.16 -0.08 0.24 -0.12 z M84.13 45.24 c-0.2 0 0 0.16 0 0 c0.04 0 0.08 0.04 0.12 0.04 c0 -0.12 0.12 -0.28 -0.04 -0.28 c-0.04 0.04 -0.08 0.12 -0.08 0.24 z M84.49 45.24 c0.08 0.04 0.2 -0.12 0.08 -0.16 c0 0.08 -0.12 0.04 -0.08 0.16 z M84.37 45.24 c0.08 0.16 0.08 -0.2 0 0 l0 0 z M84.85 45.76 c0.16 -0.12 0.56 -0.24 0.48 -0.4 c0 0.04 -0.04 0.08 -0.08 0.08 c0 -0.12 -0.04 -0.16 -0.08 -0.16 c-0.12 0.16 -0.2 0.32 -0.32 0.48 z M83.64999999999999 45.72 c-0.24 0.16 -0.6 0.52 -0.56 0.8 c0.32 -0.12 0.36 -0.52 0.64 -0.72 c-0.04 -0.04 -0.08 -0.04 -0.08 -0.08 l0.24 0 c0.08 -0.12 0.12 -0.2 0.12 -0.4 c-0.2 0.04 -0.2 0.12 -0.16 0.28 c-0.08 0.04 -0.24 -0.04 -0.2 0.12 z M83.97 45.84 c0.12 -0.08 0.4 -0.24 0.28 -0.4 c-0.04 0.16 -0.32 0.16 -0.28 0.4 z M83.77 46.04 c0.12 0.2 0.08 -0.16 0 0 l0 0 z M83.57 46.44 c0 -0.08 0.2 -0.28 0 -0.24 c0.04 0.08 -0.12 0.2 0 0.24 z M83.05 47.04 c0.08 -0.16 0.56 -0.44 0.32 -0.6 c0 0.28 -0.44 0.36 -0.32 0.6 z M84.13 46.519999999999996 c0.08 0.16 0.12 -0.2 0 0 l0 0 z M83.73 47.12 c-0.08 0 0 0.04 0 0 c0.16 -0.12 0.36 -0.24 0.4 -0.44 c-0.28 0 -0.28 0.28 -0.4 0.44 z M81.81 48 c0.48 -0.04 0.68 -0.84 1.08 -1.2 c-0.44 0.12 -0.8 0.8 -1.08 1.2 z M82.53 47.6 c0.12 0 0.28 -0.24 0.16 -0.32 c-0.04 0.12 -0.16 0.16 -0.16 0.32 z M81.45 48.44 c0.2 0.16 0.52 -0.28 0.2 -0.32 c-0.04 0.12 -0.16 0.2 -0.2 0.32 z M82.09 48.2 l-0.04 0 c-0.04 0.04 -0.08 0.08 -0.08 0.16 c-0.12 0 0.08 0.2 0 0 c0.08 -0.04 0.12 -0.08 0.12 -0.16 c0.2 0.04 0 -0.12 0 0 z M81.21 48.72 c0.16 0 0.28 0 0.28 -0.16 c-0.12 -0.12 -0.24 0.04 -0.28 0.16 z M81.85 48.56 c0.04 0.16 0.04 -0.2 0 0 l0 0 z M81.21 48.84 c-0.04 0 -0.04 -0.04 -0.08 -0.04 c-0.12 0.04 0.08 0.16 0.08 0.04 z M81.57 48.88 c0 0.04 -0.04 -0.04 0 0 l0 0 z M81.45 49.04 c0.2 0.04 0.04 -0.16 0 0 l0 0 z M78.37 52.88 l-0.04 0 c-0.44 0.72 -0.84 1.2 -1.2 2 c-0.2 0.24 -0.44 0.72 -0.44 1.04 c0.2 -0.32 0.32 -0.68 0.44 -1.04 c0.6 -0.4 0.68 -1.32 1.24 -1.72 l0 -0.28 c0.48 -0.24 0.36 -0.8 0.84 -1.04 c0 -0.08 0 -0.16 -0.04 -0.24 c0.76 -0.64 1.32 -1.64 1.96 -2.56 c-1.08 1.08 -2 2.4 -2.76 3.84 z M87.89 49.16 c0.04 0.04 0 0 0 0 l0 0 z M81.25 49.28 c0.04 0 0 -0.04 0 0 l0 0 z M88.13 50.04 c-0.04 0.28 0.04 -0.2 0 0 l0 0 z M87.73 50.08 c0.08 0.16 0.12 -0.2 0 0 l0 0 z M88.13 50.32 c-0.12 0.16 0.16 -0.12 0 0 l0 0 z M88.09 50.56 c0.04 0.04 -0.04 -0.04 0 0 l0 0 z M87.37 52.16 l0.2 0 c-0.08 -0.36 0.24 -0.8 0.04 -1.16 c-0.12 0.36 -0.08 0.8 -0.24 1.16 z M87.92999999999999 51.6 c0 -0.08 0.16 -0.28 0 -0.32 c0.08 0.16 -0.12 0.28 0 0.32 z M87.21 52 c0.08 0.2 0.08 -0.2 0 0 l0 0 z M87.17 52.16 c0.04 0 0 -0.04 0 0 l0 0 z M87.37 52.519999999999996 c0.16 0 0.2 -0.32 0.04 -0.32 c-0.08 0.12 0 0.16 -0.04 0.32 z M87.73 52.44 c0.16 0.08 0.16 -0.2 0.08 -0.2 c0 0.08 -0.08 0.12 -0.08 0.2 z M87.17 52.56 c0.04 0.04 0 0 0 0 l0 0 z M79.49 52.68 l0 0.08 c0.08 0.16 0.16 -0.08 0.2 -0.12 c-0.08 -0.04 -0.12 0.04 -0.2 0.04 z M87.09 52.68 c-0.04 0.28 0 -0.2 0 0 l0 0 z M86.73 55.68 l-0.04 0 c-0.04 0.32 -0.16 0.4 -0.28 0.48 c0 0.2 0.16 -0.08 0.12 0.08 c-0.36 1.44 -0.68 2.96 -1.2 4.24 l-0.16 0 c0.04 -0.2 -0.16 0 0 0 c0 0.16 -0.28 -0.04 -0.2 0.16 c0.04 0.16 0.28 0 0.32 0.08 c-0.16 0.32 -0.2 0.76 -0.44 1.04 c-0.08 -0.16 -0.08 0.2 -0.28 0.04 c0 0.08 -0.2 0.28 -0.08 0.36 c0.04 -0.28 0.24 -0.2 0.36 -0.36 c0.04 0.16 0 0.4 -0.16 0.28 c0.24 0.36 -0.24 0.52 -0.2 0.96 c-0.12 0 -0.16 0 -0.16 0.08 c-0.12 0.12 0 0.52 -0.24 0.64 c-0.12 -0.04 -0.16 -0.2 -0.28 -0.24 c0.08 0.2 -0.2 0.28 -0.04 0.4 c0.08 -0.28 0.12 0 0.32 -0.12 c-0.4 0.28 0 0.84 -0.6 1.12 c0 0.16 0.16 -0.12 0.12 0.04 c-0.72 0.48 -0.84 1.56 -1.44 2.2 c0.12 0.04 0.16 -0.12 0.2 0 c-0.08 0.12 -0.12 0.2 -0.28 0.12 c-0.28 0.44 -0.64 0.76 -0.92 1.2 c-0.24 0.08 -0.36 0.24 -0.44 0.52 c0.32 0.04 0.32 -0.24 0.52 -0.28 c0.04 -0.16 -0.12 -0.12 -0.08 -0.24 c0.12 -0.04 0.12 0 0.2 0.04 c-0.04 -0.16 0.16 -0.48 0.28 -0.44 c0 0.08 -0.12 0.04 -0.08 0.2 c-0.08 0 0 0.04 0 0 c0.16 -0.08 0.28 -0.2 0.32 -0.4 c-0.08 -0.04 -0.16 0.16 -0.2 0 c0.36 -0.04 0.68 -0.4 0.76 -0.84 l0.12 0 c0.08 -0.24 0.48 -0.56 0.24 -0.8 c0.16 0 0.08 -0.28 0.24 -0.32 c0.08 0.12 -0.12 0.24 0 0.28 c1.08 -1.84 1.76 -3.84 2.6 -6 c0 0.04 0.04 0.08 0.08 0.12 c0.12 -0.16 0.04 -0.16 0.16 -0.32 c-0.16 0 -0.16 0.16 -0.24 0.2 c0.28 -1.36 0.84 -3 1.08 -4.52 c0.32 -1 0.48 -1.92 0.68 -3.04 c-0.32 0.16 0 0.96 -0.44 1.04 c0.28 0.52 -0.24 1.28 -0.24 2 z M87.69 52.88 c0.16 0.04 0.16 -0.32 0 -0.24 l0 0.24 z M87.49 53.64 c0.2 0.04 0.04 -0.16 0 0 l0 0 z M87.45 53.92 c0.16 0 0.2 -0.2 0.04 -0.2 c0 0.08 -0.04 0.08 -0.04 0.2 z M77.37 53.92 c0.16 0.16 0.08 -0.16 0 0 l0 0 z M86.69 54.56 c0.12 0 0.16 -0.08 0.16 -0.2 c-0.12 -0.04 -0.16 0.04 -0.16 0.2 z M87.17 55.16 c0.16 0.04 0.12 -0.12 0.2 -0.2 c-0.08 0 -0.08 -0.04 -0.16 -0.04 c0.04 0.12 0 0.2 -0.04 0.24 z M86.61 55.28 l0.08 0 l0 -0.12 l-0.08 0 l0 0.12 z M87.00999999999999 55.2 c0.04 0.04 0 0 0 0 l0 0 z M86.49 55.28 c0.08 0.16 0.08 -0.2 0 0 l0 0 z M77.85 55.4 l0.16 0 c0 -0.08 -0.04 -0.12 -0.16 -0.08 l0 0.08 z M87.17 55.36 c0.04 0.2 0.04 -0.2 0 0 l0 0 z M86.45 55.4 c0.04 0.04 0 0 0 0 l0 0 z M77.73 55.88 c0 -0.12 0.32 -0.36 0.08 -0.44 c0 0.16 -0.2 0.32 -0.08 0.44 z M86.37 55.68 c0.12 0.08 0.12 -0.2 0.04 -0.16 c0 0.08 -0.04 0.08 -0.04 0.16 z M77.97 55.6 c0.04 0.2 0.04 -0.2 0 0 l0 0 z M76.41 56.16 c0.16 0.04 0.2 -0.08 0.2 -0.16 c-0.16 -0.04 -0.12 0.12 -0.2 0.16 z M77.49 56.28 c0 -0.08 0.2 -0.28 0 -0.28 c0.04 0.12 -0.16 0.2 0 0.28 z M87.00999999999999 56.04 c0.08 0.16 0.12 -0.2 0 0 l0 0 z M86.25 56.08 c0.08 0.2 0.08 -0.2 0 0 l0 0 z M86.97 56.28 c0.04 0.04 0 -0.04 0 0 l0 0 z M77.33 56.36 c0.04 0.2 0.04 -0.2 0 0 l0 0 z M86.28999999999999 56.519999999999996 c0.04 0.04 0 -0.04 0 0 l0 0 z M86.92999999999999 56.56 c0.04 0.2 0.04 -0.2 0 0 l0 0 z M77.09 56.8 c0.04 0 0.08 0.04 0.08 0.04 c0 -0.08 0.04 -0.16 -0.08 -0.12 l0 0.08 z M76.17 56.8 c0.04 0.04 0 -0.04 0 0 l0 0 z M86.69 56.8 c0.04 0.04 0 -0.04 0 0 l0 0 z M86.13 56.84 c0 0.04 -0.04 0 0 0 l0 0 z M86.00999999999999 56.96 l0 0.08 c0.12 0.08 0.16 -0.16 0.04 -0.16 c0 0.04 0 0.08 -0.04 0.08 z M75.89 57.44 c0 -0.12 0.24 -0.24 0.08 -0.32 c0 0.08 -0.24 0.2 -0.08 0.32 z M85.92999999999999 57.44 c0.16 0.04 0.08 -0.16 0.12 -0.2 c-0.12 -0.04 -0.12 0.08 -0.12 0.2 z M86.69 57.36 c0.04 0.2 0.04 -0.16 0 0 l0 0 z M86.64999999999999 57.6 c0.04 0.2 0.04 -0.16 0 0 l0 0 z M86.49 58.16 c0.08 0.16 0.08 -0.2 0 0 l0 0 z M85.73 58.2 l0 0.04 c-0.12 0.28 0.24 -0.28 0 -0.04 z M86.28999999999999 58.28 l-0.04 0 c0.04 0.04 0 0.04 -0.04 0.04 l0 0.12 c0.12 0 0.08 -0.08 0.08 -0.16 c0.08 -0.04 0 -0.04 0 0 z M85.69 58.480000000000004 l0.08 0 l0 -0.08 l-0.08 0 l0 0.08 z M86.41 58.44 c0.04 0.04 -0.04 -0.04 0 0 l0 0 z M86.17 58.92 c-0.04 -0.12 0.16 -0.2 -0.04 -0.2 c0 0.08 -0.04 0.16 0.04 0.2 z M86.28999999999999 58.760000000000005 c0.08 0.2 0.08 -0.2 0 0 l0 0 z M85.53 59.04 c0.16 0 0.2 -0.28 0.04 -0.28 c-0.04 0.08 -0.04 0.16 -0.04 0.28 z M86.21 59.04 c0.04 0.2 0.04 -0.16 0 0 l0 0 z M86.00999999999999 59.16 c-0.16 0.2 0.12 -0.16 0 0 l0 0 z M85.45 59.239999999999995 c-0.12 0.16 0.16 -0.12 0 0 l0 0 z M86.17 59.239999999999995 c0.04 0.04 -0.04 0 0 0 l0 0 z M85.41 59.480000000000004 c0.04 0.2 0.04 -0.2 0 0 l0 0 z M85.33 59.64 c-0.08 0.16 0.2 -0.12 0 0 l0 0 z M85.21 60.08 c0.04 0.16 0.04 -0.2 0 0 l0 0 z M85.64999999999999 60.64 c0 -0.04 0 -0.04 0.04 -0.04 c0 -0.08 0 -0.12 -0.12 -0.12 c0.04 0.08 0 0.16 0.08 0.16 z M85.45 61.04 c0.16 0.04 0.2 -0.28 0.08 -0.32 c-0.04 0.12 -0.08 0.2 -0.08 0.32 z M84.92999999999999 60.84 c0 0.04 -0.04 -0.04 0 0 l0 0 z M85.05 60.879999999999995 c0.04 0.04 0 -0.04 0 0 l0 0 z M85.00999999999999 61.120000000000005 c0.04 0.04 0 -0.04 0 0 l0 0 z M74.77 61.68 c0 -0.2 0.28 -0.48 0.08 -0.56 c-0.04 0.16 -0.2 0.4 -0.08 0.56 z M84.85 61.32 c0.04 0.04 0 -0.04 0 0 l0 0 z M85.49 61.36 l0.08 0 l0 -0.08 l-0.08 0 l0 0.08 z M85.25 61.68 c-0.08 0.08 -0.2 0.32 -0.08 0.4 c0.04 -0.12 0.12 -0.2 0.08 -0.4 l0.04 0 c0.04 0 0.12 -0.2 0 -0.24 c0.04 0.12 -0.08 0.12 -0.04 0.24 z M74.53 62.239999999999995 c-0.12 0 0.08 0.2 0 0 c0.12 -0.08 0.16 -0.24 0.16 -0.4 c-0.16 0 -0.12 0.2 -0.16 0.4 z M84.57 62.28 c0.04 0.04 0 -0.04 0 0 l0 0 z M84.25 62.6 c0.12 0.04 0.2 -0.28 0.08 -0.32 c0 0.12 -0.04 0.2 -0.08 0.32 z M84.53 62.519999999999996 c0 -0.04 0.12 -0.2 0 -0.2 c0.04 0.08 -0.16 0.16 0 0.2 z M84.97 62.4 c0.04 0.2 0.04 -0.16 0 0 l0 0 z M84.92999999999999 62.56 c-0.04 0.28 0 -0.2 0 0 l0 0 z M84.00999999999999 63.36 c0.08 -0.16 0.12 -0.32 0.2 -0.48 c-0.2 0.04 -0.4 0.4 -0.2 0.48 z M83.53 64.4 l-0.04 0 c-0.04 0 -0.12 0.16 0 0.16 c0.04 -0.04 0.04 -0.08 0.04 -0.16 c0.08 -0.12 0.36 -0.32 0.12 -0.4 c0.08 0.24 -0.16 0.16 -0.12 0.4 z M83.25 64.88 c0.08 0 0.2 -0.2 0.08 -0.2 c-0.04 0.08 -0.08 0.12 -0.08 0.2 z M82.92999999999999 65.48 c0.04 -0.04 0.2 -0.16 0.08 -0.24 c0.04 0.12 -0.2 0.16 -0.08 0.24 z M82.81 65.76 c0.08 0.04 0.2 -0.12 0.08 -0.12 c0 0.04 -0.08 0.08 -0.08 0.12 z M82.53 66.24 c0.12 0.04 0.28 -0.24 0.08 -0.24 c0 0.12 -0.08 0.16 -0.08 0.24 z M82.37 66.44 l0.08 0 l0 -0.08 l-0.08 0 l0 0.08 z M82.28999999999999 66.84 c0 -0.12 0.04 -0.12 0.08 -0.28 c-0.16 -0.04 -0.28 0.24 -0.08 0.28 z M82.09 66.92 c0.08 0.16 0.12 -0.2 0 0 l0 0 z M81.85 67.44 c0.04 -0.12 0.12 -0.16 0.2 -0.28 c-0.08 0 -0.12 -0.08 -0.2 -0.04 c0.04 0.16 -0.24 0.24 0 0.32 z M82.64999999999999 67.2 c0.04 0.04 0 0 0 0 l0 0 z M81.33 68.03999999999999 c0.08 -0.2 0.44 -0.32 0.32 -0.52 c-0.08 0.16 -0.44 0.32 -0.32 0.52 z M81.89 68.24 c0.08 0.16 0.12 -0.2 0 0 l0 0 z M79.69 69.52 l-0.12 0 l0 0.08 c0.12 0.04 0.12 -0.04 0.12 -0.08 c0.32 -0.16 0.6 -0.36 0.72 -0.72 c-0.28 0.2 -0.48 0.48 -0.72 0.72 z M78.09 69.84 c-1.04 0.44 -1.84 0.08 -2.76 -0.12 c0.44 0.6 2 0.68 2.76 0.12 z M97.41 33.92 c-0.04 0.16 -0.28 0.12 -0.36 0.28 c-0.08 -0.12 0.08 -0.36 0.36 -0.28 z M96.49 34.64 c0.12 -0.16 0.36 -0.44 0.48 -0.4 c-0.12 0.2 -0.28 0.32 -0.48 0.4 z M96.49 34.64 c-0.04 0.12 -0.16 0.2 -0.28 0.24 c0.08 -0.12 0.08 -0.24 0.28 -0.24 z M92.41 38.24 l0.08 0 l0 0.08 c-0.04 0 -0.04 0 -0.04 0.04 l-0.08 0 l0 -0.08 c0.04 0 0.04 -0.04 0.04 -0.04 z M87.21 42 c0.04 -0.12 0.2 0.08 0 0 l0 0 z M87.13 43.12 c0 -0.08 0 -0.16 0.08 -0.16 c0 0.08 -0.04 0.12 -0.08 0.16 z M86.53 43.68 c0.12 -0.16 0.08 0.16 0 0 l0 0 z M86.45 43.8 c0 0.24 -0.24 0.2 -0.28 0.44 c-0.12 -0.16 0.12 -0.4 0.28 -0.44 z M85.69 45 c0.04 0 0.04 0 0.04 -0.04 c-0.04 -0.04 -0.04 0 -0.04 0.04 z M82.92999999999999 47.96 c0.04 0.12 -0.04 0.16 -0.12 0.2 c0 -0.12 0.08 -0.16 0.12 -0.2 z M82.77 48.2 c0 -0.04 0 -0.04 0.04 -0.04 c0 0.04 0 0.04 -0.04 0.04 z M82.77 48.2 c0 0.08 -0.08 0.04 0 0 l0 0 z M82.61 48.32 c0.04 0.2 -0.24 0.48 -0.44 0.6 c0.12 -0.24 0.32 -0.4 0.44 -0.6 z M80.73 50.84 c0.4 -0.6 0.92 -1.36 1.36 -1.76 c-0.4 0.64 -0.8 1.28 -1.36 1.76 z M79.57 52.24 l0 0 c0.04 0.04 0 -0.04 0 0 z M78.57 54 c0.24 0.08 0 0.24 -0.04 0.36 c-0.16 -0.12 0.04 -0.24 0.04 -0.36 z M78.33 54.36 c0.16 0.12 -0.08 0.24 -0.08 0.36 c-0.24 -0.08 0.04 -0.24 0.08 -0.36 z M84.33 63.120000000000005 c0.08 0 0.04 0.08 0 0 l0 0 z M83.09 65.68 c0.12 -0.2 0.08 0.16 0 0 l0 0 z M82.45 67.03999999999999 c-0.08 0 -0.08 -0.04 -0.04 -0.12 c0.04 0 0.08 0.04 0.04 0.12 z M81.97 67.64 l0 0 c0.08 -0.04 0 -0.04 0 0 z M81.97 67.64 c0 0.2 -0.2 0 0 0 l0 0 z"/></g>
			</g>
		</svg>
	